<?xml version="1.0" encoding="UTF-8" standalone="no"?>
<!DOCTYPE svg PUBLIC "-//W3C//DTD SVG 1.1//EN"
 "http://www.w3.org/Graphics/SVG/1.1/DTD/svg11.dtd">
<!-- Generated by graphviz version 5.0.0 (20220707.1540)
 -->
<!-- Title: dependencies Pages: 1 -->
<svg width="2656pt" height="247pt"
 viewBox="0.00 0.00 2656.00 246.80" xmlns="http://www.w3.org/2000/svg" xmlns:xlink="http://www.w3.org/1999/xlink">
<g id="graph0" class="graph" transform="scale(1 1) rotate(0) translate(4 242.8)">
<title>dependencies</title>
<polygon fill="white" stroke="transparent" points="-4,4 -4,-242.8 2652,-242.8 2652,4 -4,4"/>
<text text-anchor="middle" x="1324" y="-8.2" font-family="sans-serif" font-size="14.00">dependencies</text>
<g id="clust1" class="cluster">
<title>cluster_RsbLibraryModule</title>
<polygon fill="none" stroke="black" stroke-dasharray="1,5" points="8,-32.8 8,-230.8 2640,-230.8 2640,-32.8 8,-32.8"/>
</g>
<g id="clust4" class="cluster">
<title>cluster_RsbLibraryModule_exports</title>
<polygon fill="none" stroke="black" points="140,-170.8 140,-222.8 2417,-222.8 2417,-170.8 140,-170.8"/>
</g>
<g id="clust6" class="cluster">
<title>cluster_RsbLibraryModule_providers</title>
<polygon fill="none" stroke="black" points="2248,-40.8 2248,-92.8 2632,-92.8 2632,-40.8 2248,-40.8"/>
</g>
<g id="clust3" class="cluster">
<title>cluster_RsbLibraryModule_imports</title>
<polygon fill="none" stroke="black" points="16,-40.8 16,-92.8 2240,-92.8 2240,-40.8 16,-40.8"/>
</g>
<!-- ClickOutsideModule -->
<g id="node1" class="node">
<title>ClickOutsideModule</title>
<polygon fill="#8dd3c7" stroke="black" points="2231.94,-84.8 2228.94,-88.8 2207.94,-88.8 2204.94,-84.8 2098.06,-84.8 2098.06,-48.8 2231.94,-48.8 2231.94,-84.8"/>
<text text-anchor="middle" x="2165" y="-62.6" font-family="Times,serif" font-size="14.00">ClickOutsideModule</text>
</g>
<!-- RsbLibraryModule -->
<g id="node16" class="node">
<title>RsbLibraryModule</title>
<polygon fill="#8dd3c7" stroke="black" points="1325.82,-149.8 1322.82,-153.8 1301.82,-153.8 1298.82,-149.8 1202.18,-149.8 1202.18,-113.8 1325.82,-113.8 1325.82,-149.8"/>
<text text-anchor="middle" x="1264" y="-127.6" font-family="Times,serif" font-size="14.00">RsbLibraryModule</text>
</g>
<!-- ClickOutsideModule&#45;&gt;RsbLibraryModule -->
<g id="edge1" class="edge">
<title>ClickOutsideModule&#45;&gt;RsbLibraryModule</title>
<path fill="none" stroke="black" d="M2104.66,-85.1C2104.66,-103.07 2104.66,-127.8 2104.66,-127.8 2104.66,-127.8 1335.82,-127.8 1335.82,-127.8"/>
<polygon fill="black" stroke="black" points="1335.82,-124.3 1325.82,-127.8 1335.82,-131.3 1335.82,-124.3"/>
</g>
<!-- RsbAccordionModule -->
<g id="node2" class="node">
<title>RsbAccordionModule</title>
<polygon fill="#8dd3c7" stroke="black" points="2080.43,-84.8 2077.43,-88.8 2056.43,-88.8 2053.43,-84.8 1939.57,-84.8 1939.57,-48.8 2080.43,-48.8 2080.43,-84.8"/>
<text text-anchor="middle" x="2010" y="-62.6" font-family="Times,serif" font-size="14.00">RsbAccordionModule</text>
</g>
<!-- RsbAccordionModule&#45;&gt;RsbLibraryModule -->
<g id="edge2" class="edge">
<title>RsbAccordionModule&#45;&gt;RsbLibraryModule</title>
<path fill="none" stroke="black" d="M1946.38,-84.82C1946.38,-102.17 1946.38,-125.8 1946.38,-125.8 1946.38,-125.8 1335.76,-125.8 1335.76,-125.8"/>
<polygon fill="black" stroke="black" points="1335.76,-122.3 1325.76,-125.8 1335.76,-129.3 1335.76,-122.3"/>
</g>
<!-- RsbBlockListModule -->
<g id="node3" class="node">
<title>RsbBlockListModule</title>
<polygon fill="#8dd3c7" stroke="black" points="1922.06,-84.8 1919.06,-88.8 1898.06,-88.8 1895.06,-84.8 1785.94,-84.8 1785.94,-48.8 1922.06,-48.8 1922.06,-84.8"/>
<text text-anchor="middle" x="1854" y="-62.6" font-family="Times,serif" font-size="14.00">RsbBlockListModule</text>
</g>
<!-- RsbBlockListModule&#45;&gt;RsbLibraryModule -->
<g id="edge3" class="edge">
<title>RsbBlockListModule&#45;&gt;RsbLibraryModule</title>
<path fill="none" stroke="black" d="M1789.62,-84.83C1789.62,-101.2 1789.62,-122.8 1789.62,-122.8 1789.62,-122.8 1335.84,-122.8 1335.84,-122.8"/>
<polygon fill="black" stroke="black" points="1335.84,-119.3 1325.84,-122.8 1335.84,-126.3 1335.84,-119.3"/>
</g>
<!-- RsbConfigModule -->
<g id="node4" class="node">
<title>RsbConfigModule</title>
<polygon fill="#8dd3c7" stroke="black" points="1768.23,-84.8 1765.23,-88.8 1744.23,-88.8 1741.23,-84.8 1647.77,-84.8 1647.77,-48.8 1768.23,-48.8 1768.23,-84.8"/>
<text text-anchor="middle" x="1708" y="-62.6" font-family="Times,serif" font-size="14.00">RsbConfigModule</text>
</g>
<!-- RsbConfigModule&#45;&gt;RsbLibraryModule -->
<g id="edge4" class="edge">
<title>RsbConfigModule&#45;&gt;RsbLibraryModule</title>
<path fill="none" stroke="black" d="M1652.12,-85.08C1652.12,-100.75 1652.12,-120.8 1652.12,-120.8 1652.12,-120.8 1335.93,-120.8 1335.93,-120.8"/>
<polygon fill="black" stroke="black" points="1335.93,-117.3 1325.93,-120.8 1335.93,-124.3 1335.93,-117.3"/>
</g>
<!-- RsbDetailModule -->
<g id="node5" class="node">
<title>RsbDetailModule</title>
<polygon fill="#8dd3c7" stroke="black" points="1629.55,-84.8 1626.55,-88.8 1605.55,-88.8 1602.55,-84.8 1514.45,-84.8 1514.45,-48.8 1629.55,-48.8 1629.55,-84.8"/>
<text text-anchor="middle" x="1572" y="-62.6" font-family="Times,serif" font-size="14.00">RsbDetailModule</text>
</g>
<!-- RsbDetailModule&#45;&gt;RsbLibraryModule -->
<g id="edge5" class="edge">
<title>RsbDetailModule&#45;&gt;RsbLibraryModule</title>
<path fill="none" stroke="black" d="M1591.26,-84.99C1591.26,-99.98 1591.26,-118.8 1591.26,-118.8 1591.26,-118.8 1335.94,-118.8 1335.94,-118.8"/>
<polygon fill="black" stroke="black" points="1335.94,-115.3 1325.94,-118.8 1335.94,-122.3 1335.94,-115.3"/>
</g>
<!-- RsbDropdownModule -->
<g id="node6" class="node">
<title>RsbDropdownModule</title>
<polygon fill="#8dd3c7" stroke="black" points="1496.72,-84.8 1493.72,-88.8 1472.72,-88.8 1469.72,-84.8 1355.28,-84.8 1355.28,-48.8 1496.72,-48.8 1496.72,-84.8"/>
<text text-anchor="middle" x="1426" y="-62.6" font-family="Times,serif" font-size="14.00">RsbDropdownModule</text>
</g>
<!-- RsbDropdownModule&#45;&gt;RsbLibraryModule -->
<g id="edge6" class="edge">
<title>RsbDropdownModule&#45;&gt;RsbLibraryModule</title>
<path fill="none" stroke="black" d="M1424.42,-84.85C1424.42,-99.17 1424.42,-116.8 1424.42,-116.8 1424.42,-116.8 1336.02,-116.8 1336.02,-116.8"/>
<polygon fill="black" stroke="black" points="1336.02,-113.3 1326.02,-116.8 1336.02,-120.3 1336.02,-113.3"/>
</g>
<!-- RsbLoadIframeModule -->
<g id="node7" class="node">
<title>RsbLoadIframeModule</title>
<polygon fill="#8dd3c7" stroke="black" points="1337.91,-84.8 1334.91,-88.8 1313.91,-88.8 1310.91,-84.8 1190.09,-84.8 1190.09,-48.8 1337.91,-48.8 1337.91,-84.8"/>
<text text-anchor="middle" x="1264" y="-62.6" font-family="Times,serif" font-size="14.00">RsbLoadIframeModule</text>
</g>
<!-- RsbLoadIframeModule&#45;&gt;RsbLibraryModule -->
<g id="edge7" class="edge">
<title>RsbLoadIframeModule&#45;&gt;RsbLibraryModule</title>
<path fill="none" stroke="black" d="M1264,-84.91C1264,-84.91 1264,-103.79 1264,-103.79"/>
<polygon fill="black" stroke="black" points="1260.5,-103.79 1264,-113.79 1267.5,-103.79 1260.5,-103.79"/>
</g>
<!-- RsbModalModule -->
<g id="node8" class="node">
<title>RsbModalModule</title>
<polygon fill="#8dd3c7" stroke="black" points="1171.89,-84.8 1168.89,-88.8 1147.89,-88.8 1144.89,-84.8 1054.11,-84.8 1054.11,-48.8 1171.89,-48.8 1171.89,-84.8"/>
<text text-anchor="middle" x="1113" y="-62.6" font-family="Times,serif" font-size="14.00">RsbModalModule</text>
</g>
<!-- RsbModalModule&#45;&gt;RsbLibraryModule -->
<g id="edge8" class="edge">
<title>RsbModalModule&#45;&gt;RsbLibraryModule</title>
<path fill="none" stroke="black" d="M1113,-84.85C1113,-99.17 1113,-116.8 1113,-116.8 1113,-116.8 1192.15,-116.8 1192.15,-116.8"/>
<polygon fill="black" stroke="black" points="1192.15,-120.3 1202.15,-116.8 1192.15,-113.3 1192.15,-120.3"/>
</g>
<!-- RsbNgModelBaseModule -->
<g id="node9" class="node">
<title>RsbNgModelBaseModule</title>
<polygon fill="#8dd3c7" stroke="black" points="1036.21,-84.8 1033.21,-88.8 1012.21,-88.8 1009.21,-84.8 873.79,-84.8 873.79,-48.8 1036.21,-48.8 1036.21,-84.8"/>
<text text-anchor="middle" x="955" y="-62.6" font-family="Times,serif" font-size="14.00">RsbNgModelBaseModule</text>
</g>
<!-- RsbNgModelBaseModule&#45;&gt;RsbLibraryModule -->
<g id="edge9" class="edge">
<title>RsbNgModelBaseModule&#45;&gt;RsbLibraryModule</title>
<path fill="none" stroke="black" d="M1027.62,-84.99C1027.62,-99.98 1027.62,-118.8 1027.62,-118.8 1027.62,-118.8 1192.2,-118.8 1192.2,-118.8"/>
<polygon fill="black" stroke="black" points="1192.2,-122.3 1202.2,-118.8 1192.2,-115.3 1192.2,-122.3"/>
</g>
<!-- RsbResolutionModule -->
<g id="node10" class="node">
<title>RsbResolutionModule</title>
<polygon fill="#8dd3c7" stroke="black" points="856.01,-84.8 853.01,-88.8 832.01,-88.8 829.01,-84.8 713.99,-84.8 713.99,-48.8 856.01,-48.8 856.01,-84.8"/>
<text text-anchor="middle" x="785" y="-62.6" font-family="Times,serif" font-size="14.00">RsbResolutionModule</text>
</g>
<!-- RsbResolutionModule&#45;&gt;RsbLibraryModule -->
<g id="edge10" class="edge">
<title>RsbResolutionModule&#45;&gt;RsbLibraryModule</title>
<path fill="none" stroke="black" d="M846.22,-85.08C846.22,-100.75 846.22,-120.8 846.22,-120.8 846.22,-120.8 1191.91,-120.8 1191.91,-120.8"/>
<polygon fill="black" stroke="black" points="1191.91,-124.3 1201.91,-120.8 1191.91,-117.3 1191.91,-124.3"/>
</g>
<!-- RsbSpinnerModule -->
<g id="node11" class="node">
<title>RsbSpinnerModule</title>
<polygon fill="#8dd3c7" stroke="black" points="696.39,-84.8 693.39,-88.8 672.39,-88.8 669.39,-84.8 571.61,-84.8 571.61,-48.8 696.39,-48.8 696.39,-84.8"/>
<text text-anchor="middle" x="634" y="-62.6" font-family="Times,serif" font-size="14.00">RsbSpinnerModule</text>
</g>
<!-- RsbSpinnerModule&#45;&gt;RsbLibraryModule -->
<g id="edge11" class="edge">
<title>RsbSpinnerModule&#45;&gt;RsbLibraryModule</title>
<path fill="none" stroke="black" d="M616.32,-84.83C616.32,-101.2 616.32,-122.8 616.32,-122.8 616.32,-122.8 1192.19,-122.8 1192.19,-122.8"/>
<polygon fill="black" stroke="black" points="1192.19,-126.3 1202.19,-122.8 1192.19,-119.3 1192.19,-126.3"/>
</g>
<!-- RsbTabsModule -->
<g id="node12" class="node">
<title>RsbTabsModule</title>
<polygon fill="#8dd3c7" stroke="black" points="553.05,-84.8 550.05,-88.8 529.05,-88.8 526.05,-84.8 444.95,-84.8 444.95,-48.8 553.05,-48.8 553.05,-84.8"/>
<text text-anchor="middle" x="499" y="-62.6" font-family="Times,serif" font-size="14.00">RsbTabsModule</text>
</g>
<!-- RsbTabsModule&#45;&gt;RsbLibraryModule -->
<g id="edge12" class="edge">
<title>RsbTabsModule&#45;&gt;RsbLibraryModule</title>
<path fill="none" stroke="black" d="M499.15,-84.82C499.15,-102.17 499.15,-125.8 499.15,-125.8 499.15,-125.8 1192.06,-125.8 1192.06,-125.8"/>
<polygon fill="black" stroke="black" points="1192.06,-129.3 1202.06,-125.8 1192.06,-122.3 1192.06,-129.3"/>
</g>
<!-- RsbToastModule -->
<g id="node13" class="node">
<title>RsbToastModule</title>
<polygon fill="#8dd3c7" stroke="black" points="427.44,-84.8 424.44,-88.8 403.44,-88.8 400.44,-84.8 314.56,-84.8 314.56,-48.8 427.44,-48.8 427.44,-84.8"/>
<text text-anchor="middle" x="371" y="-62.6" font-family="Times,serif" font-size="14.00">RsbToastModule</text>
</g>
<!-- RsbToastModule&#45;&gt;RsbLibraryModule -->
<g id="edge13" class="edge">
<title>RsbToastModule&#45;&gt;RsbLibraryModule</title>
<path fill="none" stroke="black" d="M389.74,-85.1C389.74,-103.07 389.74,-127.8 389.74,-127.8 389.74,-127.8 1192.18,-127.8 1192.18,-127.8"/>
<polygon fill="black" stroke="black" points="1192.18,-131.3 1202.18,-127.8 1192.18,-124.3 1192.18,-131.3"/>
</g>
<!-- RsbToggleModule -->
<g id="node14" class="node">
<title>RsbToggleModule</title>
<polygon fill="#8dd3c7" stroke="black" points="296.49,-84.8 293.49,-88.8 272.49,-88.8 269.49,-84.8 175.51,-84.8 175.51,-48.8 296.49,-48.8 296.49,-84.8"/>
<text text-anchor="middle" x="236" y="-62.6" font-family="Times,serif" font-size="14.00">RsbToggleModule</text>
</g>
<!-- RsbToggleModule&#45;&gt;RsbLibraryModule -->
<g id="edge14" class="edge">
<title>RsbToggleModule&#45;&gt;RsbLibraryModule</title>
<path fill="none" stroke="black" d="M290.48,-85.02C290.48,-103.63 290.48,-129.8 290.48,-129.8 290.48,-129.8 1191.99,-129.8 1191.99,-129.8"/>
<polygon fill="black" stroke="black" points="1191.99,-133.3 1201.99,-129.8 1191.99,-126.3 1191.99,-133.3"/>
</g>
<!-- RsbTranslateModule -->
<g id="node15" class="node">
<title>RsbTranslateModule</title>
<polygon fill="#8dd3c7" stroke="black" points="157.92,-84.8 154.92,-88.8 133.92,-88.8 130.92,-84.8 24.08,-84.8 24.08,-48.8 157.92,-48.8 157.92,-84.8"/>
<text text-anchor="middle" x="91" y="-62.6" font-family="Times,serif" font-size="14.00">RsbTranslateModule</text>
</g>
<!-- RsbTranslateModule&#45;&gt;RsbLibraryModule -->
<g id="edge15" class="edge">
<title>RsbTranslateModule&#45;&gt;RsbLibraryModule</title>
<path fill="none" stroke="black" d="M152.62,-84.91C152.62,-104.14 152.62,-131.8 152.62,-131.8 152.62,-131.8 1192.27,-131.8 1192.27,-131.8"/>
<polygon fill="black" stroke="black" points="1192.27,-135.3 1202.27,-131.8 1192.27,-128.3 1192.27,-135.3"/>
</g>
<!-- ClickOutsideModule  -->
<g id="node17" class="node">
<title>ClickOutsideModule </title>
<polygon fill="#fb8072" stroke="black" points="2409.43,-214.8 2272.57,-214.8 2272.57,-178.8 2409.43,-178.8 2409.43,-214.8"/>
<text text-anchor="middle" x="2341" y="-192.6" font-family="Times,serif" font-size="14.00">ClickOutsideModule </text>
</g>
<!-- RsbLibraryModule&#45;&gt;ClickOutsideModule  -->
<g id="edge16" class="edge">
<title>RsbLibraryModule&#45;&gt;ClickOutsideModule </title>
<path fill="none" stroke="black" stroke-dasharray="5,2" d="M1325.77,-134.8C1554.62,-134.8 2341,-134.8 2341,-134.8 2341,-134.8 2341,-168.53 2341,-168.53"/>
<polygon fill="black" stroke="black" points="2337.5,-168.53 2341,-178.53 2344.5,-168.53 2337.5,-168.53"/>
</g>
<!-- RsbAccordionModule  -->
<g id="node18" class="node">
<title>RsbAccordionModule </title>
<polygon fill="#fb8072" stroke="black" points="2254.93,-214.8 2111.07,-214.8 2111.07,-178.8 2254.93,-178.8 2254.93,-214.8"/>
<text text-anchor="middle" x="2183" y="-192.6" font-family="Times,serif" font-size="14.00">RsbAccordionModule </text>
</g>
<!-- RsbLibraryModule&#45;&gt;RsbAccordionModule  -->
<g id="edge17" class="edge">
<title>RsbLibraryModule&#45;&gt;RsbAccordionModule </title>
<path fill="none" stroke="black" stroke-dasharray="5,2" d="M1326.01,-136.8C1530.63,-136.8 2171.38,-136.8 2171.38,-136.8 2171.38,-136.8 2171.38,-168.8 2171.38,-168.8"/>
<polygon fill="black" stroke="black" points="2167.88,-168.8 2171.38,-178.8 2174.88,-168.8 2167.88,-168.8"/>
</g>
<!-- RsbBlockListModule  -->
<g id="node19" class="node">
<title>RsbBlockListModule </title>
<polygon fill="#fb8072" stroke="black" points="2093.06,-214.8 1952.94,-214.8 1952.94,-178.8 2093.06,-178.8 2093.06,-214.8"/>
<text text-anchor="middle" x="2023" y="-192.6" font-family="Times,serif" font-size="14.00">RsbBlockListModule </text>
</g>
<!-- RsbLibraryModule&#45;&gt;RsbBlockListModule  -->
<g id="edge18" class="edge">
<title>RsbLibraryModule&#45;&gt;RsbBlockListModule </title>
<path fill="none" stroke="black" stroke-dasharray="5,2" d="M1325.91,-138.8C1505.93,-138.8 2016.59,-138.8 2016.59,-138.8 2016.59,-138.8 2016.59,-168.77 2016.59,-168.77"/>
<polygon fill="black" stroke="black" points="2013.09,-168.77 2016.59,-178.77 2020.09,-168.77 2013.09,-168.77"/>
</g>
<!-- RsbConfigModule  -->
<g id="node20" class="node">
<title>RsbConfigModule </title>
<polygon fill="#fb8072" stroke="black" points="1934.73,-214.8 1811.27,-214.8 1811.27,-178.8 1934.73,-178.8 1934.73,-214.8"/>
<text text-anchor="middle" x="1873" y="-192.6" font-family="Times,serif" font-size="14.00">RsbConfigModule </text>
</g>
<!-- RsbLibraryModule&#45;&gt;RsbConfigModule  -->
<g id="edge19" class="edge">
<title>RsbLibraryModule&#45;&gt;RsbConfigModule </title>
<path fill="none" stroke="black" stroke-dasharray="5,2" d="M1325.67,-140.8C1479.28,-140.8 1866.71,-140.8 1866.71,-140.8 1866.71,-140.8 1866.71,-168.77 1866.71,-168.77"/>
<polygon fill="black" stroke="black" points="1863.21,-168.77 1866.71,-178.77 1870.21,-168.77 1863.21,-168.77"/>
</g>
<!-- RsbDetailModule  -->
<g id="node21" class="node">
<title>RsbDetailModule </title>
<polygon fill="#fb8072" stroke="black" points="1793.54,-214.8 1674.46,-214.8 1674.46,-178.8 1793.54,-178.8 1793.54,-214.8"/>
<text text-anchor="middle" x="1734" y="-192.6" font-family="Times,serif" font-size="14.00">RsbDetailModule </text>
</g>
<!-- RsbLibraryModule&#45;&gt;RsbDetailModule  -->
<g id="edge20" class="edge">
<title>RsbLibraryModule&#45;&gt;RsbDetailModule </title>
<path fill="none" stroke="black" stroke-dasharray="5,2" d="M1325.67,-143.8C1450.5,-143.8 1721.3,-143.8 1721.3,-143.8 1721.3,-143.8 1721.3,-168.56 1721.3,-168.56"/>
<polygon fill="black" stroke="black" points="1717.8,-168.56 1721.3,-178.56 1724.8,-168.56 1717.8,-168.56"/>
</g>
<!-- RsbDropdownModule  -->
<g id="node22" class="node">
<title>RsbDropdownModule </title>
<polygon fill="#fb8072" stroke="black" points="1656.22,-214.8 1511.78,-214.8 1511.78,-178.8 1656.22,-178.8 1656.22,-214.8"/>
<text text-anchor="middle" x="1584" y="-192.6" font-family="Times,serif" font-size="14.00">RsbDropdownModule </text>
</g>
<!-- RsbLibraryModule&#45;&gt;RsbDropdownModule  -->
<g id="edge21" class="edge">
<title>RsbLibraryModule&#45;&gt;RsbDropdownModule </title>
<path fill="none" stroke="black" stroke-dasharray="5,2" d="M1325.94,-145.8C1410.78,-145.8 1552.74,-145.8 1552.74,-145.8 1552.74,-145.8 1552.74,-168.68 1552.74,-168.68"/>
<polygon fill="black" stroke="black" points="1549.24,-168.68 1552.74,-178.68 1556.24,-168.68 1549.24,-168.68"/>
</g>
<!-- RsbLoadIframeModule  -->
<g id="node23" class="node">
<title>RsbLoadIframeModule </title>
<polygon fill="#fb8072" stroke="black" points="1493.41,-214.8 1342.59,-214.8 1342.59,-178.8 1493.41,-178.8 1493.41,-214.8"/>
<text text-anchor="middle" x="1418" y="-192.6" font-family="Times,serif" font-size="14.00">RsbLoadIframeModule </text>
</g>
<!-- RsbLibraryModule&#45;&gt;RsbLoadIframeModule  -->
<g id="edge22" class="edge">
<title>RsbLibraryModule&#45;&gt;RsbLoadIframeModule </title>
<path fill="none" stroke="black" stroke-dasharray="5,2" d="M1325.75,-147.8C1338.93,-147.8 1348.97,-147.8 1348.97,-147.8 1348.97,-147.8 1348.97,-168.55 1348.97,-168.55"/>
<polygon fill="black" stroke="black" points="1345.47,-168.55 1348.97,-178.55 1352.47,-168.55 1345.47,-168.55"/>
</g>
<!-- RsbModalModule  -->
<g id="node24" class="node">
<title>RsbModalModule </title>
<polygon fill="#fb8072" stroke="black" points="1324.89,-214.8 1203.11,-214.8 1203.11,-178.8 1324.89,-178.8 1324.89,-214.8"/>
<text text-anchor="middle" x="1264" y="-192.6" font-family="Times,serif" font-size="14.00">RsbModalModule </text>
</g>
<!-- RsbLibraryModule&#45;&gt;RsbModalModule  -->
<g id="edge23" class="edge">
<title>RsbLibraryModule&#45;&gt;RsbModalModule </title>
<path fill="none" stroke="black" stroke-dasharray="5,2" d="M1264,-149.91C1264,-149.91 1264,-168.79 1264,-168.79"/>
<polygon fill="black" stroke="black" points="1260.5,-168.79 1264,-178.79 1267.5,-168.79 1260.5,-168.79"/>
</g>
<!-- RsbNgModelBaseModule  -->
<g id="node25" class="node">
<title>RsbNgModelBaseModule </title>
<polygon fill="#fb8072" stroke="black" points="1184.71,-214.8 1019.29,-214.8 1019.29,-178.8 1184.71,-178.8 1184.71,-214.8"/>
<text text-anchor="middle" x="1102" y="-192.6" font-family="Times,serif" font-size="14.00">RsbNgModelBaseModule </text>
</g>
<!-- RsbLibraryModule&#45;&gt;RsbNgModelBaseModule  -->
<g id="edge24" class="edge">
<title>RsbLibraryModule&#45;&gt;RsbNgModelBaseModule </title>
<path fill="none" stroke="black" stroke-dasharray="5,2" d="M1202.25,-147.8C1188.75,-147.8 1178.4,-147.8 1178.4,-147.8 1178.4,-147.8 1178.4,-168.55 1178.4,-168.55"/>
<polygon fill="black" stroke="black" points="1174.9,-168.55 1178.4,-178.55 1181.9,-168.55 1174.9,-168.55"/>
</g>
<!-- RsbResolutionModule  -->
<g id="node26" class="node">
<title>RsbResolutionModule </title>
<polygon fill="#fb8072" stroke="black" points="1000.51,-214.8 855.49,-214.8 855.49,-178.8 1000.51,-178.8 1000.51,-214.8"/>
<text text-anchor="middle" x="928" y="-192.6" font-family="Times,serif" font-size="14.00">RsbResolutionModule </text>
</g>
<!-- RsbLibraryModule&#45;&gt;RsbResolutionModule  -->
<g id="edge25" class="edge">
<title>RsbLibraryModule&#45;&gt;RsbResolutionModule </title>
<path fill="none" stroke="black" stroke-dasharray="5,2" d="M1202.17,-145.8C1107.46,-145.8 937.32,-145.8 937.32,-145.8 937.32,-145.8 937.32,-168.68 937.32,-168.68"/>
<polygon fill="black" stroke="black" points="933.82,-168.68 937.32,-178.68 940.82,-168.68 933.82,-168.68"/>
</g>
<!-- RsbSpinnerModule  -->
<g id="node27" class="node">
<title>RsbSpinnerModule </title>
<polygon fill="#fb8072" stroke="black" points="837.39,-214.8 708.61,-214.8 708.61,-178.8 837.39,-178.8 837.39,-214.8"/>
<text text-anchor="middle" x="773" y="-192.6" font-family="Times,serif" font-size="14.00">RsbSpinnerModule </text>
</g>
<!-- RsbLibraryModule&#45;&gt;RsbSpinnerModule  -->
<g id="edge26" class="edge">
<title>RsbLibraryModule&#45;&gt;RsbSpinnerModule </title>
<path fill="none" stroke="black" stroke-dasharray="5,2" d="M1202.14,-143.8C1070.72,-143.8 775.6,-143.8 775.6,-143.8 775.6,-143.8 775.6,-168.56 775.6,-168.56"/>
<polygon fill="black" stroke="black" points="772.1,-168.56 775.6,-178.56 779.1,-168.56 772.1,-168.56"/>
</g>
<!-- RsbTabsModule  -->
<g id="node28" class="node">
<title>RsbTabsModule </title>
<polygon fill="#fb8072" stroke="black" points="691.05,-214.8 578.95,-214.8 578.95,-178.8 691.05,-178.8 691.05,-214.8"/>
<text text-anchor="middle" x="635" y="-192.6" font-family="Times,serif" font-size="14.00">RsbTabsModule </text>
</g>
<!-- RsbLibraryModule&#45;&gt;RsbTabsModule  -->
<g id="edge27" class="edge">
<title>RsbLibraryModule&#45;&gt;RsbTabsModule </title>
<path fill="none" stroke="black" stroke-dasharray="5,2" d="M1202.12,-140.8C1046.96,-140.8 653.68,-140.8 653.68,-140.8 653.68,-140.8 653.68,-168.77 653.68,-168.77"/>
<polygon fill="black" stroke="black" points="650.18,-168.77 653.68,-178.77 657.18,-168.77 650.18,-168.77"/>
</g>
<!-- RsbToastModule  -->
<g id="node29" class="node">
<title>RsbToastModule </title>
<polygon fill="#fb8072" stroke="black" points="560.94,-214.8 445.06,-214.8 445.06,-178.8 560.94,-178.8 560.94,-214.8"/>
<text text-anchor="middle" x="503" y="-192.6" font-family="Times,serif" font-size="14.00">RsbToastModule </text>
</g>
<!-- RsbLibraryModule&#45;&gt;RsbToastModule  -->
<g id="edge28" class="edge">
<title>RsbLibraryModule&#45;&gt;RsbToastModule </title>
<path fill="none" stroke="black" stroke-dasharray="5,2" d="M1202.2,-138.8C1029.96,-138.8 557.12,-138.8 557.12,-138.8 557.12,-138.8 557.12,-168.77 557.12,-168.77"/>
<polygon fill="black" stroke="black" points="553.62,-168.77 557.12,-178.77 560.62,-168.77 553.62,-168.77"/>
</g>
<!-- RsbToggleModule  -->
<g id="node30" class="node">
<title>RsbToggleModule </title>
<polygon fill="#fb8072" stroke="black" points="427.49,-214.8 302.51,-214.8 302.51,-178.8 427.49,-178.8 427.49,-214.8"/>
<text text-anchor="middle" x="365" y="-192.6" font-family="Times,serif" font-size="14.00">RsbToggleModule </text>
</g>
<!-- RsbLibraryModule&#45;&gt;RsbToggleModule  -->
<g id="edge29" class="edge">
<title>RsbLibraryModule&#45;&gt;RsbToggleModule </title>
<path fill="none" stroke="black" stroke-dasharray="5,2" d="M1202.05,-136.8C996.84,-136.8 352.26,-136.8 352.26,-136.8 352.26,-136.8 352.26,-168.8 352.26,-168.8"/>
<polygon fill="black" stroke="black" points="348.76,-168.8 352.26,-178.8 355.76,-168.8 348.76,-168.8"/>
</g>
<!-- RsbTranslateModule  -->
<g id="node31" class="node">
<title>RsbTranslateModule </title>
<polygon fill="#fb8072" stroke="black" points="284.42,-214.8 147.58,-214.8 147.58,-178.8 284.42,-178.8 284.42,-214.8"/>
<text text-anchor="middle" x="216" y="-192.6" font-family="Times,serif" font-size="14.00">RsbTranslateModule </text>
</g>
<!-- RsbLibraryModule&#45;&gt;RsbTranslateModule  -->
<g id="edge30" class="edge">
<title>RsbLibraryModule&#45;&gt;RsbTranslateModule </title>
<path fill="none" stroke="black" stroke-dasharray="5,2" d="M1202.03,-134.8C978.95,-134.8 229.98,-134.8 229.98,-134.8 229.98,-134.8 229.98,-168.53 229.98,-168.53"/>
<polygon fill="black" stroke="black" points="226.48,-168.53 229.98,-178.53 233.48,-168.53 226.48,-168.53"/>
</g>
<!-- RsbConstantsService -->
<g id="node32" class="node">
<title>RsbConstantsService</title>
<ellipse fill="#fdb462" stroke="black" cx="2531" cy="-66.8" rx="93.23" ry="18"/>
<text text-anchor="middle" x="2531" y="-62.6" font-family="Times,serif" font-size="14.00">RsbConstantsService</text>
</g>
<!-- RsbConstantsService&#45;&gt;RsbLibraryModule -->
<g id="edge31" class="edge">
<title>RsbConstantsService&#45;&gt;RsbLibraryModule</title>
<path fill="none" stroke="black" d="M2531,-84.91C2531,-104.14 2531,-131.8 2531,-131.8 2531,-131.8 1335.97,-131.8 1335.97,-131.8"/>
<polygon fill="black" stroke="black" points="1335.97,-128.3 1325.97,-131.8 1335.97,-135.3 1335.97,-128.3"/>
</g>
<!-- RsbThemeService -->
<g id="node33" class="node">
<title>RsbThemeService</title>
<ellipse fill="#fdb462" stroke="black" cx="2338" cy="-66.8" rx="81.66" ry="18"/>
<text text-anchor="middle" x="2338" y="-62.6" font-family="Times,serif" font-size="14.00">RsbThemeService</text>
</g>
<!-- RsbThemeService&#45;&gt;RsbLibraryModule -->
<g id="edge32" class="edge">
<title>RsbThemeService&#45;&gt;RsbLibraryModule</title>
<path fill="none" stroke="black" d="M2264.35,-74.78C2264.35,-91.73 2264.35,-129.8 2264.35,-129.8 2264.35,-129.8 1335.82,-129.8 1335.82,-129.8"/>
<polygon fill="black" stroke="black" points="1335.82,-126.3 1325.82,-129.8 1335.82,-133.3 1335.82,-126.3"/>
</g>
</g>
</svg>
