<?xml version="1.0" encoding="UTF-8" standalone="no"?>
<!DOCTYPE svg PUBLIC "-//W3C//DTD SVG 1.1//EN"
 "http://www.w3.org/Graphics/SVG/1.1/DTD/svg11.dtd">
<!-- Generated by graphviz version 5.0.0 (20220707.1540)
 -->
<!-- Title: dependencies Pages: 1 -->
<svg width="222pt" height="247pt"
 viewBox="0.00 0.00 222.00 246.80" xmlns="http://www.w3.org/2000/svg" xmlns:xlink="http://www.w3.org/1999/xlink">
<g id="graph0" class="graph" transform="scale(1 1) rotate(0) translate(4 242.8)">
<title>dependencies</title>
<polygon fill="white" stroke="transparent" points="-4,4 -4,-242.8 218,-242.8 218,4 -4,4"/>
<text text-anchor="middle" x="107" y="-8.2" font-family="sans-serif" font-size="14.00">dependencies</text>
<g id="clust1" class="cluster">
<title>cluster_RsbAccordionModule</title>
<polygon fill="none" stroke="black" stroke-dasharray="1,5" points="8,-32.8 8,-230.8 206,-230.8 206,-32.8 8,-32.8"/>
</g>
<g id="clust2" class="cluster">
<title>cluster_RsbAccordionModule_declarations</title>
<polygon fill="none" stroke="black" points="18,-40.8 18,-92.8 196,-92.8 196,-40.8 18,-40.8"/>
</g>
<g id="clust5" class="cluster">
<title>cluster_RsbAccordionModule_exports</title>
<polygon fill="none" stroke="black" points="16,-170.8 16,-222.8 198,-222.8 198,-170.8 16,-170.8"/>
</g>
<!-- RsbAccordionComponent -->
<g id="node1" class="node">
<title>RsbAccordionComponent</title>
<polygon fill="#ffffb3" stroke="black" points="188.21,-84.8 25.79,-84.8 25.79,-48.8 188.21,-48.8 188.21,-84.8"/>
<text text-anchor="middle" x="107" y="-62.6" font-family="Times,serif" font-size="14.00">RsbAccordionComponent</text>
</g>
<!-- RsbAccordionModule -->
<g id="node2" class="node">
<title>RsbAccordionModule</title>
<polygon fill="#8dd3c7" stroke="black" points="177.43,-149.8 174.43,-153.8 153.43,-153.8 150.43,-149.8 36.57,-149.8 36.57,-113.8 177.43,-113.8 177.43,-149.8"/>
<text text-anchor="middle" x="107" y="-127.6" font-family="Times,serif" font-size="14.00">RsbAccordionModule</text>
</g>
<!-- RsbAccordionComponent&#45;&gt;RsbAccordionModule -->
<g id="edge1" class="edge">
<title>RsbAccordionComponent&#45;&gt;RsbAccordionModule</title>
<path fill="none" stroke="black" d="M107,-84.91C107,-84.91 107,-103.79 107,-103.79"/>
<polygon fill="black" stroke="black" points="103.5,-103.79 107,-113.79 110.5,-103.79 103.5,-103.79"/>
</g>
<!-- RsbAccordionComponent  -->
<g id="node3" class="node">
<title>RsbAccordionComponent </title>
<polygon fill="#fb8072" stroke="black" points="189.71,-214.8 24.29,-214.8 24.29,-178.8 189.71,-178.8 189.71,-214.8"/>
<text text-anchor="middle" x="107" y="-192.6" font-family="Times,serif" font-size="14.00">RsbAccordionComponent </text>
</g>
<!-- RsbAccordionModule&#45;&gt;RsbAccordionComponent  -->
<g id="edge2" class="edge">
<title>RsbAccordionModule&#45;&gt;RsbAccordionComponent </title>
<path fill="none" stroke="black" stroke-dasharray="5,2" d="M107,-149.91C107,-149.91 107,-168.79 107,-168.79"/>
<polygon fill="black" stroke="black" points="103.5,-168.79 107,-178.79 110.5,-168.79 103.5,-168.79"/>
</g>
</g>
</svg>
