<?xml version="1.0" encoding="UTF-8" standalone="no"?>
<!DOCTYPE svg PUBLIC "-//W3C//DTD SVG 1.1//EN"
 "http://www.w3.org/Graphics/SVG/1.1/DTD/svg11.dtd">
<!-- Generated by graphviz version 5.0.0 (20220707.1540)
 -->
<!-- Title: dependencies Pages: 1 -->
<svg width="170pt" height="247pt"
 viewBox="0.00 0.00 170.00 246.80" xmlns="http://www.w3.org/2000/svg" xmlns:xlink="http://www.w3.org/1999/xlink">
<g id="graph0" class="graph" transform="scale(1 1) rotate(0) translate(4 242.8)">
<title>dependencies</title>
<polygon fill="white" stroke="transparent" points="-4,4 -4,-242.8 166,-242.8 166,4 -4,4"/>
<text text-anchor="middle" x="81" y="-8.2" font-family="sans-serif" font-size="14.00">dependencies</text>
<g id="clust1" class="cluster">
<title>cluster_RsbJoinPipeModule</title>
<polygon fill="none" stroke="black" stroke-dasharray="1,5" points="8,-32.8 8,-230.8 154,-230.8 154,-32.8 8,-32.8"/>
</g>
<g id="clust5" class="cluster">
<title>cluster_RsbJoinPipeModule_exports</title>
<polygon fill="none" stroke="black" points="28,-170.8 28,-222.8 134,-222.8 134,-170.8 28,-170.8"/>
</g>
<g id="clust2" class="cluster">
<title>cluster_RsbJoinPipeModule_declarations</title>
<polygon fill="none" stroke="black" points="30,-40.8 30,-92.8 132,-92.8 132,-40.8 30,-40.8"/>
</g>
<!-- RsbJoinPipe -->
<g id="node1" class="node">
<title>RsbJoinPipe</title>
<polygon fill="#ffffb3" stroke="black" points="124.01,-84.8 37.99,-84.8 37.99,-48.8 124.01,-48.8 124.01,-84.8"/>
<text text-anchor="middle" x="81" y="-62.6" font-family="Times,serif" font-size="14.00">RsbJoinPipe</text>
</g>
<!-- RsbJoinPipeModule -->
<g id="node2" class="node">
<title>RsbJoinPipeModule</title>
<polygon fill="#8dd3c7" stroke="black" points="145.57,-149.8 142.57,-153.8 121.57,-153.8 118.57,-149.8 16.43,-149.8 16.43,-113.8 145.57,-113.8 145.57,-149.8"/>
<text text-anchor="middle" x="81" y="-127.6" font-family="Times,serif" font-size="14.00">RsbJoinPipeModule</text>
</g>
<!-- RsbJoinPipe&#45;&gt;RsbJoinPipeModule -->
<g id="edge1" class="edge">
<title>RsbJoinPipe&#45;&gt;RsbJoinPipeModule</title>
<path fill="none" stroke="black" d="M81,-84.91C81,-84.91 81,-103.79 81,-103.79"/>
<polygon fill="black" stroke="black" points="77.5,-103.79 81,-113.79 84.5,-103.79 77.5,-103.79"/>
</g>
<!-- RsbJoinPipe  -->
<g id="node3" class="node">
<title>RsbJoinPipe </title>
<polygon fill="#fb8072" stroke="black" points="125.51,-214.8 36.49,-214.8 36.49,-178.8 125.51,-178.8 125.51,-214.8"/>
<text text-anchor="middle" x="81" y="-192.6" font-family="Times,serif" font-size="14.00">RsbJoinPipe </text>
</g>
<!-- RsbJoinPipeModule&#45;&gt;RsbJoinPipe  -->
<g id="edge2" class="edge">
<title>RsbJoinPipeModule&#45;&gt;RsbJoinPipe </title>
<path fill="none" stroke="black" stroke-dasharray="5,2" d="M81,-149.91C81,-149.91 81,-168.79 81,-168.79"/>
<polygon fill="black" stroke="black" points="77.5,-168.79 81,-178.79 84.5,-168.79 77.5,-168.79"/>
</g>
</g>
</svg>
