<?xml version="1.0" encoding="UTF-8" standalone="no"?>
<!DOCTYPE svg PUBLIC "-//W3C//DTD SVG 1.1//EN"
 "http://www.w3.org/Graphics/SVG/1.1/DTD/svg11.dtd">
<!-- Generated by graphviz version 5.0.0 (20220707.1540)
 -->
<!-- Title: dependencies Pages: 1 -->
<svg width="216pt" height="247pt"
 viewBox="0.00 0.00 216.00 246.80" xmlns="http://www.w3.org/2000/svg" xmlns:xlink="http://www.w3.org/1999/xlink">
<g id="graph0" class="graph" transform="scale(1 1) rotate(0) translate(4 242.8)">
<title>dependencies</title>
<polygon fill="white" stroke="transparent" points="-4,4 -4,-242.8 212,-242.8 212,4 -4,4"/>
<text text-anchor="middle" x="104" y="-8.2" font-family="sans-serif" font-size="14.00">dependencies</text>
<g id="clust1" class="cluster">
<title>cluster_RsbLoadIframeModule</title>
<polygon fill="none" stroke="black" stroke-dasharray="1,5" points="8,-32.8 8,-230.8 200,-230.8 200,-32.8 8,-32.8"/>
</g>
<g id="clust5" class="cluster">
<title>cluster_RsbLoadIframeModule_exports</title>
<polygon fill="none" stroke="black" points="16,-170.8 16,-222.8 192,-222.8 192,-170.8 16,-170.8"/>
</g>
<g id="clust2" class="cluster">
<title>cluster_RsbLoadIframeModule_declarations</title>
<polygon fill="none" stroke="black" points="18,-40.8 18,-92.8 190,-92.8 190,-40.8 18,-40.8"/>
</g>
<!-- RsbLoadIframeDirective -->
<g id="node1" class="node">
<title>RsbLoadIframeDirective</title>
<polygon fill="#ffffb3" stroke="black" points="181.94,-84.8 26.06,-84.8 26.06,-48.8 181.94,-48.8 181.94,-84.8"/>
<text text-anchor="middle" x="104" y="-62.6" font-family="Times,serif" font-size="14.00">RsbLoadIframeDirective</text>
</g>
<!-- RsbLoadIframeModule -->
<g id="node2" class="node">
<title>RsbLoadIframeModule</title>
<polygon fill="#8dd3c7" stroke="black" points="177.91,-149.8 174.91,-153.8 153.91,-153.8 150.91,-149.8 30.09,-149.8 30.09,-113.8 177.91,-113.8 177.91,-149.8"/>
<text text-anchor="middle" x="104" y="-127.6" font-family="Times,serif" font-size="14.00">RsbLoadIframeModule</text>
</g>
<!-- RsbLoadIframeDirective&#45;&gt;RsbLoadIframeModule -->
<g id="edge1" class="edge">
<title>RsbLoadIframeDirective&#45;&gt;RsbLoadIframeModule</title>
<path fill="none" stroke="black" d="M104,-84.91C104,-84.91 104,-103.79 104,-103.79"/>
<polygon fill="black" stroke="black" points="100.5,-103.79 104,-113.79 107.5,-103.79 100.5,-103.79"/>
</g>
<!-- RsbLoadIframeDirective  -->
<g id="node3" class="node">
<title>RsbLoadIframeDirective </title>
<polygon fill="#fb8072" stroke="black" points="183.94,-214.8 24.06,-214.8 24.06,-178.8 183.94,-178.8 183.94,-214.8"/>
<text text-anchor="middle" x="104" y="-192.6" font-family="Times,serif" font-size="14.00">RsbLoadIframeDirective </text>
</g>
<!-- RsbLoadIframeModule&#45;&gt;RsbLoadIframeDirective  -->
<g id="edge2" class="edge">
<title>RsbLoadIframeModule&#45;&gt;RsbLoadIframeDirective </title>
<path fill="none" stroke="black" stroke-dasharray="5,2" d="M104,-149.91C104,-149.91 104,-168.79 104,-168.79"/>
<polygon fill="black" stroke="black" points="100.5,-168.79 104,-178.79 107.5,-168.79 100.5,-168.79"/>
</g>
</g>
</svg>
