<?xml version="1.0" encoding="UTF-8" standalone="no"?>
<!DOCTYPE svg PUBLIC "-//W3C//DTD SVG 1.1//EN"
 "http://www.w3.org/Graphics/SVG/1.1/DTD/svg11.dtd">
<!-- Generated by graphviz version 5.0.0 (20220707.1540)
 -->
<!-- Title: dependencies Pages: 1 -->
<svg width="346pt" height="247pt"
 viewBox="0.00 0.00 346.00 246.80" xmlns="http://www.w3.org/2000/svg" xmlns:xlink="http://www.w3.org/1999/xlink">
<g id="graph0" class="graph" transform="scale(1 1) rotate(0) translate(4 242.8)">
<title>dependencies</title>
<polygon fill="white" stroke="transparent" points="-4,4 -4,-242.8 342,-242.8 342,4 -4,4"/>
<text text-anchor="middle" x="169" y="-8.2" font-family="sans-serif" font-size="14.00">dependencies</text>
<g id="clust1" class="cluster">
<title>cluster_RsbConfigModule</title>
<polygon fill="none" stroke="black" stroke-dasharray="1,5" points="8,-32.8 8,-230.8 330,-230.8 330,-32.8 8,-32.8"/>
</g>
<g id="clust2" class="cluster">
<title>cluster_RsbConfigModule_declarations</title>
<polygon fill="none" stroke="black" points="204,-40.8 204,-92.8 322,-92.8 322,-40.8 204,-40.8"/>
</g>
<g id="clust5" class="cluster">
<title>cluster_RsbConfigModule_exports</title>
<polygon fill="none" stroke="black" points="122,-170.8 122,-222.8 244,-222.8 244,-170.8 122,-170.8"/>
</g>
<g id="clust7" class="cluster">
<title>cluster_RsbConfigModule_providers</title>
<polygon fill="none" stroke="black" points="16,-40.8 16,-92.8 196,-92.8 196,-40.8 16,-40.8"/>
</g>
<!-- RsbConfigPipe -->
<g id="node1" class="node">
<title>RsbConfigPipe</title>
<polygon fill="#ffffb3" stroke="black" points="313.57,-84.8 212.43,-84.8 212.43,-48.8 313.57,-48.8 313.57,-84.8"/>
<text text-anchor="middle" x="263" y="-62.6" font-family="Times,serif" font-size="14.00">RsbConfigPipe</text>
</g>
<!-- RsbConfigModule -->
<g id="node2" class="node">
<title>RsbConfigModule</title>
<polygon fill="#8dd3c7" stroke="black" points="243.23,-149.8 240.23,-153.8 219.23,-153.8 216.23,-149.8 122.77,-149.8 122.77,-113.8 243.23,-113.8 243.23,-149.8"/>
<text text-anchor="middle" x="183" y="-127.6" font-family="Times,serif" font-size="14.00">RsbConfigModule</text>
</g>
<!-- RsbConfigPipe&#45;&gt;RsbConfigModule -->
<g id="edge1" class="edge">
<title>RsbConfigPipe&#45;&gt;RsbConfigModule</title>
<path fill="none" stroke="black" d="M227.67,-84.91C227.67,-84.91 227.67,-103.79 227.67,-103.79"/>
<polygon fill="black" stroke="black" points="224.17,-103.79 227.67,-113.79 231.17,-103.79 224.17,-103.79"/>
</g>
<!-- RsbConfigPipe  -->
<g id="node3" class="node">
<title>RsbConfigPipe </title>
<polygon fill="#fb8072" stroke="black" points="235.57,-214.8 130.43,-214.8 130.43,-178.8 235.57,-178.8 235.57,-214.8"/>
<text text-anchor="middle" x="183" y="-192.6" font-family="Times,serif" font-size="14.00">RsbConfigPipe </text>
</g>
<!-- RsbConfigModule&#45;&gt;RsbConfigPipe  -->
<g id="edge2" class="edge">
<title>RsbConfigModule&#45;&gt;RsbConfigPipe </title>
<path fill="none" stroke="black" stroke-dasharray="5,2" d="M183,-149.91C183,-149.91 183,-168.79 183,-168.79"/>
<polygon fill="black" stroke="black" points="179.5,-168.79 183,-178.79 186.5,-168.79 179.5,-168.79"/>
</g>
<!-- RsbConfigService -->
<g id="node4" class="node">
<title>RsbConfigService</title>
<ellipse fill="#fdb462" stroke="black" cx="106" cy="-66.8" rx="81.69" ry="18"/>
<text text-anchor="middle" x="106" y="-62.6" font-family="Times,serif" font-size="14.00">RsbConfigService</text>
</g>
<!-- RsbConfigService&#45;&gt;RsbConfigModule -->
<g id="edge3" class="edge">
<title>RsbConfigService&#45;&gt;RsbConfigModule</title>
<path fill="none" stroke="black" d="M155.37,-81.23C155.37,-81.23 155.37,-103.69 155.37,-103.69"/>
<polygon fill="black" stroke="black" points="151.87,-103.69 155.37,-113.69 158.87,-103.69 151.87,-103.69"/>
</g>
</g>
</svg>
