<?xml version="1.0" encoding="UTF-8" standalone="no"?>
<!DOCTYPE svg PUBLIC "-//W3C//DTD SVG 1.1//EN"
 "http://www.w3.org/Graphics/SVG/1.1/DTD/svg11.dtd">
<!-- Generated by graphviz version 5.0.0 (20220707.1540)
 -->
<!-- Title: dependencies Pages: 1 -->
<svg width="1108pt" height="358pt"
 viewBox="0.00 0.00 1108.00 358.39" xmlns="http://www.w3.org/2000/svg" xmlns:xlink="http://www.w3.org/1999/xlink">
<g id="graph0" class="graph" transform="scale(1 1) rotate(0) translate(4 354.39)">
<title>dependencies</title>
<polygon fill="white" stroke="transparent" points="-4,4 -4,-354.39 1104,-354.39 1104,4 -4,4"/>
<text text-anchor="middle" x="550" y="-8.2" font-family="sans-serif" font-size="14.00">dependencies</text>
<g id="clust1" class="cluster">
<title>cluster_RsbToggleModule</title>
<polygon fill="none" stroke="black" stroke-dasharray="1,5" points="8,-32.8 8,-342.39 1092,-342.39 1092,-32.8 8,-32.8"/>
</g>
<g id="clust3" class="cluster">
<title>cluster_RsbToggleModule_RsbToggleComponent_providers</title>
<polygon fill="none" stroke="black" points="202,-40.8 202,-204.39 1084,-204.39 1084,-40.8 202,-40.8"/>
</g>
<g id="clust4" class="cluster">
<title>cluster_RsbToggleModule_imports</title>
<polygon fill="none" stroke="black" points="16,-152.39 16,-204.39 194,-204.39 194,-152.39 16,-152.39"/>
</g>
<g id="clust5" class="cluster">
<title>cluster_RsbToggleModule_exports</title>
<polygon fill="none" stroke="black" points="202,-282.39 202,-334.39 364,-334.39 364,-282.39 202,-282.39"/>
</g>
<!-- RsbToggleComponent -->
<g id="node1" class="node">
<title>RsbToggleComponent</title>
<polygon fill="#ffffb3" stroke="black" points="533.27,-196.39 390.73,-196.39 390.73,-160.39 533.27,-160.39 533.27,-196.39"/>
<text text-anchor="middle" x="462" y="-174.19" font-family="Times,serif" font-size="14.00">RsbToggleComponent</text>
</g>
<!-- RsbToggleModule -->
<g id="node2" class="node">
<title>RsbToggleModule</title>
<polygon fill="#8dd3c7" stroke="black" points="343.49,-261.39 340.49,-265.39 319.49,-265.39 316.49,-261.39 222.51,-261.39 222.51,-225.39 343.49,-225.39 343.49,-261.39"/>
<text text-anchor="middle" x="283" y="-239.19" font-family="Times,serif" font-size="14.00">RsbToggleModule</text>
</g>
<!-- RsbToggleComponent&#45;&gt;RsbToggleModule -->
<g id="edge1" class="edge">
<title>RsbToggleComponent&#45;&gt;RsbToggleModule</title>
<path fill="none" stroke="black" d="M390.48,-172.39C348.32,-172.39 303.17,-172.39 303.17,-172.39 303.17,-172.39 303.17,-215.11 303.17,-215.11"/>
<polygon fill="black" stroke="black" points="299.67,-215.11 303.17,-225.11 306.67,-215.11 299.67,-215.11"/>
</g>
<!-- RsbToggleComponent  -->
<g id="node5" class="node">
<title>RsbToggleComponent </title>
<polygon fill="#fb8072" stroke="black" points="356.27,-326.39 209.73,-326.39 209.73,-290.39 356.27,-290.39 356.27,-326.39"/>
<text text-anchor="middle" x="283" y="-304.19" font-family="Times,serif" font-size="14.00">RsbToggleComponent </text>
</g>
<!-- RsbToggleModule&#45;&gt;RsbToggleComponent  -->
<g id="edge4" class="edge">
<title>RsbToggleModule&#45;&gt;RsbToggleComponent </title>
<path fill="none" stroke="black" stroke-dasharray="5,2" d="M283,-261.5C283,-261.5 283,-280.38 283,-280.38"/>
<polygon fill="black" stroke="black" points="279.5,-280.38 283,-290.38 286.5,-280.38 279.5,-280.38"/>
</g>
<!-- {
 &#160;&#160;&#160;provide: NG_VALUE_ACCESSOR, useExisting: forwardRef(() =&gt; RsbToggleComponent), multi: true
} -->
<g id="node3" class="node">
<title>{
 &#160;&#160;&#160;provide: NG_VALUE_ACCESSOR, useExisting: forwardRef(() =&gt; RsbToggleComponent), multi: true
}</title>
<ellipse fill="#fdb462" stroke="black" cx="643" cy="-90.1" rx="432.98" ry="41.09"/>
<text text-anchor="middle" x="643" y="-102.7" font-family="Times,serif" font-size="14.00">{</text>
<text text-anchor="middle" x="643" y="-85.9" font-family="Times,serif" font-size="14.00"> &#160;&#160;&#160;provide: NG_VALUE_ACCESSOR, useExisting: forwardRef(() =&gt; RsbToggleComponent), multi: true</text>
<text text-anchor="middle" x="643" y="-69.1" font-family="Times,serif" font-size="14.00">}</text>
</g>
<!-- {
 &#160;&#160;&#160;provide: NG_VALUE_ACCESSOR, useExisting: forwardRef(() =&gt; RsbToggleComponent), multi: true
}&#45;&gt;RsbToggleComponent -->
<g id="edge2" class="edge">
<title>{
 &#160;&#160;&#160;provide: NG_VALUE_ACCESSOR, useExisting: forwardRef(() =&gt; RsbToggleComponent), multi: true
}&#45;&gt;RsbToggleComponent</title>
<path fill="none" stroke="black" d="M462,-127.8C462,-127.8 462,-150.25 462,-150.25"/>
<polygon fill="black" stroke="black" points="458.5,-150.25 462,-160.25 465.5,-150.25 458.5,-150.25"/>
</g>
<!-- RsbNgModelBaseModule -->
<g id="node4" class="node">
<title>RsbNgModelBaseModule</title>
<polygon fill="#8dd3c7" stroke="black" points="186.21,-196.39 183.21,-200.39 162.21,-200.39 159.21,-196.39 23.79,-196.39 23.79,-160.39 186.21,-160.39 186.21,-196.39"/>
<text text-anchor="middle" x="105" y="-174.19" font-family="Times,serif" font-size="14.00">RsbNgModelBaseModule</text>
</g>
<!-- RsbNgModelBaseModule&#45;&gt;RsbToggleModule -->
<g id="edge3" class="edge">
<title>RsbNgModelBaseModule&#45;&gt;RsbToggleModule</title>
<path fill="none" stroke="black" d="M186.23,-184.39C224.9,-184.39 262.83,-184.39 262.83,-184.39 262.83,-184.39 262.83,-215.37 262.83,-215.37"/>
<polygon fill="black" stroke="black" points="259.33,-215.37 262.83,-225.37 266.33,-215.37 259.33,-215.37"/>
</g>
</g>
</svg>
