<?xml version="1.0" encoding="UTF-8" standalone="no"?>
<!DOCTYPE svg PUBLIC "-//W3C//DTD SVG 1.1//EN"
 "http://www.w3.org/Graphics/SVG/1.1/DTD/svg11.dtd">
<!-- Generated by graphviz version 5.0.0 (20220707.1540)
 -->
<!-- Title: dependencies Pages: 1 -->
<svg width="802pt" height="247pt"
 viewBox="0.00 0.00 802.00 246.80" xmlns="http://www.w3.org/2000/svg" xmlns:xlink="http://www.w3.org/1999/xlink">
<g id="graph0" class="graph" transform="scale(1 1) rotate(0) translate(4 242.8)">
<title>dependencies</title>
<polygon fill="white" stroke="transparent" points="-4,4 -4,-242.8 798,-242.8 798,4 -4,4"/>
<text text-anchor="middle" x="397" y="-8.2" font-family="sans-serif" font-size="14.00">dependencies</text>
<g id="clust1" class="cluster">
<title>cluster_RsbBlockListModule</title>
<polygon fill="none" stroke="black" stroke-dasharray="1,5" points="8,-32.8 8,-230.8 786,-230.8 786,-32.8 8,-32.8"/>
</g>
<g id="clust2" class="cluster">
<title>cluster_RsbBlockListModule_declarations</title>
<polygon fill="none" stroke="black" points="174,-40.8 174,-92.8 778,-92.8 778,-40.8 174,-40.8"/>
</g>
<g id="clust7" class="cluster">
<title>cluster_RsbBlockListModule_exports</title>
<polygon fill="none" stroke="black" points="160,-170.8 160,-222.8 570,-222.8 570,-170.8 160,-170.8"/>
</g>
<g id="clust6" class="cluster">
<title>cluster_RsbBlockListModule_imports</title>
<polygon fill="none" stroke="black" points="16,-40.8 16,-92.8 166,-92.8 166,-40.8 16,-40.8"/>
</g>
<!-- RsbBlockListComponent -->
<g id="node1" class="node">
<title>RsbBlockListComponent</title>
<polygon fill="#ffffb3" stroke="black" points="770.34,-84.8 611.66,-84.8 611.66,-48.8 770.34,-48.8 770.34,-84.8"/>
<text text-anchor="middle" x="691" y="-62.6" font-family="Times,serif" font-size="14.00">RsbBlockListComponent</text>
</g>
<!-- RsbBlockListModule -->
<g id="node4" class="node">
<title>RsbBlockListModule</title>
<polygon fill="#8dd3c7" stroke="black" points="446.06,-149.8 443.06,-153.8 422.06,-153.8 419.06,-149.8 309.94,-149.8 309.94,-113.8 446.06,-113.8 446.06,-149.8"/>
<text text-anchor="middle" x="378" y="-127.6" font-family="Times,serif" font-size="14.00">RsbBlockListModule</text>
</g>
<!-- RsbBlockListComponent&#45;&gt;RsbBlockListModule -->
<g id="edge1" class="edge">
<title>RsbBlockListComponent&#45;&gt;RsbBlockListModule</title>
<path fill="none" stroke="black" d="M691,-84.91C691,-104.14 691,-131.8 691,-131.8 691,-131.8 456.3,-131.8 456.3,-131.8"/>
<polygon fill="black" stroke="black" points="456.3,-128.3 446.3,-131.8 456.3,-135.3 456.3,-128.3"/>
</g>
<!-- RsbBlockListDataItemComponent -->
<g id="node2" class="node">
<title>RsbBlockListDataItemComponent</title>
<polygon fill="#ffffb3" stroke="black" points="594.42,-84.8 383.58,-84.8 383.58,-48.8 594.42,-48.8 594.42,-84.8"/>
<text text-anchor="middle" x="489" y="-62.6" font-family="Times,serif" font-size="14.00">RsbBlockListDataItemComponent</text>
</g>
<!-- RsbBlockListDataItemComponent&#45;&gt;RsbBlockListModule -->
<g id="edge2" class="edge">
<title>RsbBlockListDataItemComponent&#45;&gt;RsbBlockListModule</title>
<path fill="none" stroke="black" d="M415.03,-84.91C415.03,-84.91 415.03,-103.79 415.03,-103.79"/>
<polygon fill="black" stroke="black" points="411.53,-103.79 415.03,-113.79 418.53,-103.79 411.53,-103.79"/>
</g>
<!-- RsbBlockListItemComponent -->
<g id="node3" class="node">
<title>RsbBlockListItemComponent</title>
<polygon fill="#ffffb3" stroke="black" points="365.99,-84.8 182.01,-84.8 182.01,-48.8 365.99,-48.8 365.99,-84.8"/>
<text text-anchor="middle" x="274" y="-62.6" font-family="Times,serif" font-size="14.00">RsbBlockListItemComponent</text>
</g>
<!-- RsbBlockListItemComponent&#45;&gt;RsbBlockListModule -->
<g id="edge3" class="edge">
<title>RsbBlockListItemComponent&#45;&gt;RsbBlockListModule</title>
<path fill="none" stroke="black" d="M337.86,-84.91C337.86,-84.91 337.86,-103.79 337.86,-103.79"/>
<polygon fill="black" stroke="black" points="334.36,-103.79 337.86,-113.79 341.36,-103.79 334.36,-103.79"/>
</g>
<!-- RsbBlockListComponent  -->
<g id="node6" class="node">
<title>RsbBlockListComponent </title>
<polygon fill="#fb8072" stroke="black" points="561.84,-214.8 400.16,-214.8 400.16,-178.8 561.84,-178.8 561.84,-214.8"/>
<text text-anchor="middle" x="481" y="-192.6" font-family="Times,serif" font-size="14.00">RsbBlockListComponent </text>
</g>
<!-- RsbBlockListModule&#45;&gt;RsbBlockListComponent  -->
<g id="edge5" class="edge">
<title>RsbBlockListModule&#45;&gt;RsbBlockListComponent </title>
<path fill="none" stroke="black" stroke-dasharray="5,2" d="M423.18,-149.91C423.18,-149.91 423.18,-168.79 423.18,-168.79"/>
<polygon fill="black" stroke="black" points="419.68,-168.79 423.18,-178.79 426.68,-168.79 419.68,-168.79"/>
</g>
<!-- RsbBlockListDataItemComponent  -->
<g id="node7" class="node">
<title>RsbBlockListDataItemComponent </title>
<polygon fill="#fb8072" stroke="black" points="381.92,-214.8 168.08,-214.8 168.08,-178.8 381.92,-178.8 381.92,-214.8"/>
<text text-anchor="middle" x="275" y="-192.6" font-family="Times,serif" font-size="14.00">RsbBlockListDataItemComponent </text>
</g>
<!-- RsbBlockListModule&#45;&gt;RsbBlockListDataItemComponent  -->
<g id="edge6" class="edge">
<title>RsbBlockListModule&#45;&gt;RsbBlockListDataItemComponent </title>
<path fill="none" stroke="black" stroke-dasharray="5,2" d="M345.84,-149.91C345.84,-149.91 345.84,-168.79 345.84,-168.79"/>
<polygon fill="black" stroke="black" points="342.34,-168.79 345.84,-178.79 349.34,-168.79 342.34,-168.79"/>
</g>
<!-- ClickOutsideModule -->
<g id="node5" class="node">
<title>ClickOutsideModule</title>
<polygon fill="#8dd3c7" stroke="black" points="157.94,-84.8 154.94,-88.8 133.94,-88.8 130.94,-84.8 24.06,-84.8 24.06,-48.8 157.94,-48.8 157.94,-84.8"/>
<text text-anchor="middle" x="91" y="-62.6" font-family="Times,serif" font-size="14.00">ClickOutsideModule</text>
</g>
<!-- ClickOutsideModule&#45;&gt;RsbBlockListModule -->
<g id="edge4" class="edge">
<title>ClickOutsideModule&#45;&gt;RsbBlockListModule</title>
<path fill="none" stroke="black" d="M91,-84.91C91,-104.14 91,-131.8 91,-131.8 91,-131.8 299.62,-131.8 299.62,-131.8"/>
<polygon fill="black" stroke="black" points="299.62,-135.3 309.62,-131.8 299.62,-128.3 299.62,-135.3"/>
</g>
</g>
</svg>
