<?xml version="1.0" encoding="UTF-8" standalone="no"?>
<!DOCTYPE svg PUBLIC "-//W3C//DTD SVG 1.1//EN"
 "http://www.w3.org/Graphics/SVG/1.1/DTD/svg11.dtd">
<!-- Generated by graphviz version 5.0.0 (20220707.1540)
 -->
<!-- Title: dependencies Pages: 1 -->
<svg width="424pt" height="247pt"
 viewBox="0.00 0.00 424.00 246.80" xmlns="http://www.w3.org/2000/svg" xmlns:xlink="http://www.w3.org/1999/xlink">
<g id="graph0" class="graph" transform="scale(1 1) rotate(0) translate(4 242.8)">
<title>dependencies</title>
<polygon fill="white" stroke="transparent" points="-4,4 -4,-242.8 420,-242.8 420,4 -4,4"/>
<text text-anchor="middle" x="208" y="-8.2" font-family="sans-serif" font-size="14.00">dependencies</text>
<g id="clust1" class="cluster">
<title>cluster_RsbResolutionModule</title>
<polygon fill="none" stroke="black" stroke-dasharray="1,5" points="8,-32.8 8,-230.8 408,-230.8 408,-32.8 8,-32.8"/>
</g>
<g id="clust5" class="cluster">
<title>cluster_RsbResolutionModule_exports</title>
<polygon fill="none" stroke="black" points="113,-170.8 113,-222.8 283,-222.8 283,-170.8 113,-170.8"/>
</g>
<g id="clust7" class="cluster">
<title>cluster_RsbResolutionModule_providers</title>
<polygon fill="none" stroke="black" points="190,-40.8 190,-92.8 400,-92.8 400,-40.8 190,-40.8"/>
</g>
<g id="clust2" class="cluster">
<title>cluster_RsbResolutionModule_declarations</title>
<polygon fill="none" stroke="black" points="16,-40.8 16,-92.8 182,-92.8 182,-40.8 16,-40.8"/>
</g>
<!-- RsbResolutionDirective -->
<g id="node1" class="node">
<title>RsbResolutionDirective</title>
<polygon fill="#ffffb3" stroke="black" points="174.04,-84.8 23.96,-84.8 23.96,-48.8 174.04,-48.8 174.04,-84.8"/>
<text text-anchor="middle" x="99" y="-62.6" font-family="Times,serif" font-size="14.00">RsbResolutionDirective</text>
</g>
<!-- RsbResolutionModule -->
<g id="node2" class="node">
<title>RsbResolutionModule</title>
<polygon fill="#8dd3c7" stroke="black" points="269.01,-149.8 266.01,-153.8 245.01,-153.8 242.01,-149.8 126.99,-149.8 126.99,-113.8 269.01,-113.8 269.01,-149.8"/>
<text text-anchor="middle" x="198" y="-127.6" font-family="Times,serif" font-size="14.00">RsbResolutionModule</text>
</g>
<!-- RsbResolutionDirective&#45;&gt;RsbResolutionModule -->
<g id="edge1" class="edge">
<title>RsbResolutionDirective&#45;&gt;RsbResolutionModule</title>
<path fill="none" stroke="black" d="M150.63,-84.91C150.63,-84.91 150.63,-103.79 150.63,-103.79"/>
<polygon fill="black" stroke="black" points="147.13,-103.79 150.63,-113.79 154.13,-103.79 147.13,-103.79"/>
</g>
<!-- RsbResolutionDirective  -->
<g id="node3" class="node">
<title>RsbResolutionDirective </title>
<polygon fill="#fb8072" stroke="black" points="275.04,-214.8 120.96,-214.8 120.96,-178.8 275.04,-178.8 275.04,-214.8"/>
<text text-anchor="middle" x="198" y="-192.6" font-family="Times,serif" font-size="14.00">RsbResolutionDirective </text>
</g>
<!-- RsbResolutionModule&#45;&gt;RsbResolutionDirective  -->
<g id="edge2" class="edge">
<title>RsbResolutionModule&#45;&gt;RsbResolutionDirective </title>
<path fill="none" stroke="black" stroke-dasharray="5,2" d="M198,-149.91C198,-149.91 198,-168.79 198,-168.79"/>
<polygon fill="black" stroke="black" points="194.5,-168.79 198,-178.79 201.5,-168.79 194.5,-168.79"/>
</g>
<!-- RsbResolutionService -->
<g id="node4" class="node">
<title>RsbResolutionService</title>
<ellipse fill="#fdb462" stroke="black" cx="295" cy="-66.8" rx="96.74" ry="18"/>
<text text-anchor="middle" x="295" y="-62.6" font-family="Times,serif" font-size="14.00">RsbResolutionService</text>
</g>
<!-- RsbResolutionService&#45;&gt;RsbResolutionModule -->
<g id="edge3" class="edge">
<title>RsbResolutionService&#45;&gt;RsbResolutionModule</title>
<path fill="none" stroke="black" d="M233.57,-80.9C233.57,-80.9 233.57,-103.52 233.57,-103.52"/>
<polygon fill="black" stroke="black" points="230.07,-103.52 233.57,-113.52 237.07,-103.52 230.07,-103.52"/>
</g>
</g>
</svg>
