<?xml version="1.0" encoding="UTF-8" standalone="no"?>
<!DOCTYPE svg PUBLIC "-//W3C//DTD SVG 1.1//EN"
 "http://www.w3.org/Graphics/SVG/1.1/DTD/svg11.dtd">
<!-- Generated by graphviz version 5.0.0 (20220707.1540)
 -->
<!-- Title: dependencies Pages: 1 -->
<svg width="538pt" height="247pt"
 viewBox="0.00 0.00 538.00 246.80" xmlns="http://www.w3.org/2000/svg" xmlns:xlink="http://www.w3.org/1999/xlink">
<g id="graph0" class="graph" transform="scale(1 1) rotate(0) translate(4 242.8)">
<title>dependencies</title>
<polygon fill="white" stroke="transparent" points="-4,4 -4,-242.8 534,-242.8 534,4 -4,4"/>
<text text-anchor="middle" x="265" y="-8.2" font-family="sans-serif" font-size="14.00">dependencies</text>
<g id="clust1" class="cluster">
<title>cluster_RsbModalModule</title>
<polygon fill="none" stroke="black" stroke-dasharray="1,5" points="8,-32.8 8,-230.8 522,-230.8 522,-32.8 8,-32.8"/>
</g>
<g id="clust7" class="cluster">
<title>cluster_RsbModalModule_providers</title>
<polygon fill="none" stroke="black" points="338,-40.8 338,-92.8 514,-92.8 514,-40.8 338,-40.8"/>
</g>
<g id="clust5" class="cluster">
<title>cluster_RsbModalModule_exports</title>
<polygon fill="none" stroke="black" points="175,-170.8 175,-222.8 335,-222.8 335,-170.8 175,-170.8"/>
</g>
<g id="clust4" class="cluster">
<title>cluster_RsbModalModule_imports</title>
<polygon fill="none" stroke="black" points="180,-40.8 180,-92.8 330,-92.8 330,-40.8 180,-40.8"/>
</g>
<g id="clust2" class="cluster">
<title>cluster_RsbModalModule_declarations</title>
<polygon fill="none" stroke="black" points="16,-40.8 16,-92.8 172,-92.8 172,-40.8 16,-40.8"/>
</g>
<!-- RsbModalComponent -->
<g id="node1" class="node">
<title>RsbModalComponent</title>
<polygon fill="#ffffb3" stroke="black" points="163.67,-84.8 24.33,-84.8 24.33,-48.8 163.67,-48.8 163.67,-84.8"/>
<text text-anchor="middle" x="94" y="-62.6" font-family="Times,serif" font-size="14.00">RsbModalComponent</text>
</g>
<!-- RsbModalModule -->
<g id="node2" class="node">
<title>RsbModalModule</title>
<polygon fill="#8dd3c7" stroke="black" points="313.89,-149.8 310.89,-153.8 289.89,-153.8 286.89,-149.8 196.11,-149.8 196.11,-113.8 313.89,-113.8 313.89,-149.8"/>
<text text-anchor="middle" x="255" y="-127.6" font-family="Times,serif" font-size="14.00">RsbModalModule</text>
</g>
<!-- RsbModalComponent&#45;&gt;RsbModalModule -->
<g id="edge1" class="edge">
<title>RsbModalComponent&#45;&gt;RsbModalModule</title>
<path fill="none" stroke="black" d="M94,-84.91C94,-104.14 94,-131.8 94,-131.8 94,-131.8 185.96,-131.8 185.96,-131.8"/>
<polygon fill="black" stroke="black" points="185.96,-135.3 195.96,-131.8 185.96,-128.3 185.96,-135.3"/>
</g>
<!-- RsbModalComponent  -->
<g id="node4" class="node">
<title>RsbModalComponent </title>
<polygon fill="#fb8072" stroke="black" points="326.67,-214.8 183.33,-214.8 183.33,-178.8 326.67,-178.8 326.67,-214.8"/>
<text text-anchor="middle" x="255" y="-192.6" font-family="Times,serif" font-size="14.00">RsbModalComponent </text>
</g>
<!-- RsbModalModule&#45;&gt;RsbModalComponent  -->
<g id="edge3" class="edge">
<title>RsbModalModule&#45;&gt;RsbModalComponent </title>
<path fill="none" stroke="black" stroke-dasharray="5,2" d="M255,-149.91C255,-149.91 255,-168.79 255,-168.79"/>
<polygon fill="black" stroke="black" points="251.5,-168.79 255,-178.79 258.5,-168.79 251.5,-168.79"/>
</g>
<!-- ClickOutsideModule -->
<g id="node3" class="node">
<title>ClickOutsideModule</title>
<polygon fill="#8dd3c7" stroke="black" points="321.94,-84.8 318.94,-88.8 297.94,-88.8 294.94,-84.8 188.06,-84.8 188.06,-48.8 321.94,-48.8 321.94,-84.8"/>
<text text-anchor="middle" x="255" y="-62.6" font-family="Times,serif" font-size="14.00">ClickOutsideModule</text>
</g>
<!-- ClickOutsideModule&#45;&gt;RsbModalModule -->
<g id="edge2" class="edge">
<title>ClickOutsideModule&#45;&gt;RsbModalModule</title>
<path fill="none" stroke="black" d="M255,-84.91C255,-84.91 255,-103.79 255,-103.79"/>
<polygon fill="black" stroke="black" points="251.5,-103.79 255,-113.79 258.5,-103.79 251.5,-103.79"/>
</g>
<!-- RsbModalService -->
<g id="node5" class="node">
<title>RsbModalService</title>
<ellipse fill="#fdb462" stroke="black" cx="426" cy="-66.8" rx="80.47" ry="18"/>
<text text-anchor="middle" x="426" y="-62.6" font-family="Times,serif" font-size="14.00">RsbModalService</text>
</g>
<!-- RsbModalService&#45;&gt;RsbModalModule -->
<g id="edge4" class="edge">
<title>RsbModalService&#45;&gt;RsbModalModule</title>
<path fill="none" stroke="black" d="M426,-84.91C426,-104.14 426,-131.8 426,-131.8 426,-131.8 324.33,-131.8 324.33,-131.8"/>
<polygon fill="black" stroke="black" points="324.33,-128.3 314.33,-131.8 324.33,-135.3 324.33,-128.3"/>
</g>
</g>
</svg>
