<?xml version="1.0" encoding="UTF-8" standalone="no"?>
<!DOCTYPE svg PUBLIC "-//W3C//DTD SVG 1.1//EN"
 "http://www.w3.org/Graphics/SVG/1.1/DTD/svg11.dtd">
<!-- Generated by graphviz version 5.0.0 (20220707.1540)
 -->
<!-- Title: dependencies Pages: 1 -->
<svg width="1288pt" height="358pt"
 viewBox="0.00 0.00 1288.00 358.39" xmlns="http://www.w3.org/2000/svg" xmlns:xlink="http://www.w3.org/1999/xlink">
<g id="graph0" class="graph" transform="scale(1 1) rotate(0) translate(4 354.39)">
<title>dependencies</title>
<polygon fill="white" stroke="transparent" points="-4,4 -4,-354.39 1284,-354.39 1284,4 -4,4"/>
<text text-anchor="middle" x="640" y="-8.2" font-family="sans-serif" font-size="14.00">dependencies</text>
<g id="clust1" class="cluster">
<title>cluster_RsbDropdownModule</title>
<polygon fill="none" stroke="black" stroke-dasharray="1,5" points="8,-32.8 8,-342.39 1272,-342.39 1272,-32.8 8,-32.8"/>
</g>
<g id="clust3" class="cluster">
<title>cluster_RsbDropdownModule_RsbDropdownComponent_providers</title>
<polygon fill="none" stroke="black" points="354,-40.8 354,-204.39 1264,-204.39 1264,-40.8 354,-40.8"/>
</g>
<g id="clust5" class="cluster">
<title>cluster_RsbDropdownModule_exports</title>
<polygon fill="none" stroke="black" points="180,-282.39 180,-334.39 362,-334.39 362,-282.39 180,-282.39"/>
</g>
<g id="clust4" class="cluster">
<title>cluster_RsbDropdownModule_imports</title>
<polygon fill="none" stroke="black" points="16,-152.39 16,-204.39 346,-204.39 346,-152.39 16,-152.39"/>
</g>
<!-- RsbDropdownComponent -->
<g id="node1" class="node">
<title>RsbDropdownComponent</title>
<polygon fill="#ffffb3" stroke="black" points="707.5,-196.39 544.5,-196.39 544.5,-160.39 707.5,-160.39 707.5,-196.39"/>
<text text-anchor="middle" x="626" y="-174.19" font-family="Times,serif" font-size="14.00">RsbDropdownComponent</text>
</g>
<!-- RsbDropdownModule -->
<g id="node2" class="node">
<title>RsbDropdownModule</title>
<polygon fill="#8dd3c7" stroke="black" points="341.72,-261.39 338.72,-265.39 317.72,-265.39 314.72,-261.39 200.28,-261.39 200.28,-225.39 341.72,-225.39 341.72,-261.39"/>
<text text-anchor="middle" x="271" y="-239.19" font-family="Times,serif" font-size="14.00">RsbDropdownModule</text>
</g>
<!-- RsbDropdownComponent&#45;&gt;RsbDropdownModule -->
<g id="edge1" class="edge">
<title>RsbDropdownComponent&#45;&gt;RsbDropdownModule</title>
<path fill="none" stroke="black" d="M626,-196.5C626,-215.73 626,-243.39 626,-243.39 626,-243.39 351.99,-243.39 351.99,-243.39"/>
<polygon fill="black" stroke="black" points="351.99,-239.89 341.99,-243.39 351.99,-246.89 351.99,-239.89"/>
</g>
<!-- RsbDropdownComponent  -->
<g id="node6" class="node">
<title>RsbDropdownComponent </title>
<polygon fill="#fb8072" stroke="black" points="354,-326.39 188,-326.39 188,-290.39 354,-290.39 354,-326.39"/>
<text text-anchor="middle" x="271" y="-304.19" font-family="Times,serif" font-size="14.00">RsbDropdownComponent </text>
</g>
<!-- RsbDropdownModule&#45;&gt;RsbDropdownComponent  -->
<g id="edge5" class="edge">
<title>RsbDropdownModule&#45;&gt;RsbDropdownComponent </title>
<path fill="none" stroke="black" stroke-dasharray="5,2" d="M271,-261.5C271,-261.5 271,-280.38 271,-280.38"/>
<polygon fill="black" stroke="black" points="267.5,-280.38 271,-290.38 274.5,-280.38 267.5,-280.38"/>
</g>
<!-- {
 &#160;&#160;&#160;provide: NG_VALUE_ACCESSOR, useExisting: forwardRef(() =&gt; RsbDropdownComponent), multi: true
} -->
<g id="node3" class="node">
<title>{
 &#160;&#160;&#160;provide: NG_VALUE_ACCESSOR, useExisting: forwardRef(() =&gt; RsbDropdownComponent), multi: true
}</title>
<ellipse fill="#fdb462" stroke="black" cx="809" cy="-90.1" rx="447.09" ry="41.09"/>
<text text-anchor="middle" x="809" y="-102.7" font-family="Times,serif" font-size="14.00">{</text>
<text text-anchor="middle" x="809" y="-85.9" font-family="Times,serif" font-size="14.00"> &#160;&#160;&#160;provide: NG_VALUE_ACCESSOR, useExisting: forwardRef(() =&gt; RsbDropdownComponent), multi: true</text>
<text text-anchor="middle" x="809" y="-69.1" font-family="Times,serif" font-size="14.00">}</text>
</g>
<!-- {
 &#160;&#160;&#160;provide: NG_VALUE_ACCESSOR, useExisting: forwardRef(() =&gt; RsbDropdownComponent), multi: true
}&#45;&gt;RsbDropdownComponent -->
<g id="edge2" class="edge">
<title>{
 &#160;&#160;&#160;provide: NG_VALUE_ACCESSOR, useExisting: forwardRef(() =&gt; RsbDropdownComponent), multi: true
}&#45;&gt;RsbDropdownComponent</title>
<path fill="none" stroke="black" d="M626,-127.8C626,-127.8 626,-150.25 626,-150.25"/>
<polygon fill="black" stroke="black" points="622.5,-150.25 626,-160.25 629.5,-150.25 622.5,-150.25"/>
</g>
<!-- ClickOutsideModule -->
<g id="node4" class="node">
<title>ClickOutsideModule</title>
<polygon fill="#8dd3c7" stroke="black" points="337.94,-196.39 334.94,-200.39 313.94,-200.39 310.94,-196.39 204.06,-196.39 204.06,-160.39 337.94,-160.39 337.94,-196.39"/>
<text text-anchor="middle" x="271" y="-174.19" font-family="Times,serif" font-size="14.00">ClickOutsideModule</text>
</g>
<!-- ClickOutsideModule&#45;&gt;RsbDropdownModule -->
<g id="edge3" class="edge">
<title>ClickOutsideModule&#45;&gt;RsbDropdownModule</title>
<path fill="none" stroke="black" d="M271,-196.5C271,-196.5 271,-215.38 271,-215.38"/>
<polygon fill="black" stroke="black" points="267.5,-215.38 271,-225.38 274.5,-215.38 267.5,-215.38"/>
</g>
<!-- RsbNgModelBaseModule -->
<g id="node5" class="node">
<title>RsbNgModelBaseModule</title>
<polygon fill="#8dd3c7" stroke="black" points="186.21,-196.39 183.21,-200.39 162.21,-200.39 159.21,-196.39 23.79,-196.39 23.79,-160.39 186.21,-160.39 186.21,-196.39"/>
<text text-anchor="middle" x="105" y="-174.19" font-family="Times,serif" font-size="14.00">RsbNgModelBaseModule</text>
</g>
<!-- RsbNgModelBaseModule&#45;&gt;RsbDropdownModule -->
<g id="edge4" class="edge">
<title>RsbNgModelBaseModule&#45;&gt;RsbDropdownModule</title>
<path fill="none" stroke="black" d="M105,-196.5C105,-215.73 105,-243.39 105,-243.39 105,-243.39 190.12,-243.39 190.12,-243.39"/>
<polygon fill="black" stroke="black" points="190.12,-246.89 200.12,-243.39 190.12,-239.89 190.12,-246.89"/>
</g>
</g>
</svg>
