<?xml version="1.0" encoding="UTF-8" standalone="no"?>
<!DOCTYPE svg PUBLIC "-//W3C//DTD SVG 1.1//EN"
 "http://www.w3.org/Graphics/SVG/1.1/DTD/svg11.dtd">
<!-- Generated by graphviz version 5.0.0 (20220707.1540)
 -->
<!-- Title: dependencies Pages: 1 -->
<svg width="376pt" height="247pt"
 viewBox="0.00 0.00 376.00 246.80" xmlns="http://www.w3.org/2000/svg" xmlns:xlink="http://www.w3.org/1999/xlink">
<g id="graph0" class="graph" transform="scale(1 1) rotate(0) translate(4 242.8)">
<title>dependencies</title>
<polygon fill="white" stroke="transparent" points="-4,4 -4,-242.8 372,-242.8 372,4 -4,4"/>
<text text-anchor="middle" x="184" y="-8.2" font-family="sans-serif" font-size="14.00">dependencies</text>
<g id="clust1" class="cluster">
<title>cluster_RsbTranslateModule</title>
<polygon fill="none" stroke="black" stroke-dasharray="1,5" points="8,-32.8 8,-230.8 360,-230.8 360,-32.8 8,-32.8"/>
</g>
<g id="clust7" class="cluster">
<title>cluster_RsbTranslateModule_providers</title>
<polygon fill="none" stroke="black" points="154,-40.8 154,-92.8 352,-92.8 352,-40.8 154,-40.8"/>
</g>
<g id="clust5" class="cluster">
<title>cluster_RsbTranslateModule_exports</title>
<polygon fill="none" stroke="black" points="101,-170.8 101,-222.8 235,-222.8 235,-170.8 101,-170.8"/>
</g>
<g id="clust2" class="cluster">
<title>cluster_RsbTranslateModule_declarations</title>
<polygon fill="none" stroke="black" points="16,-40.8 16,-92.8 146,-92.8 146,-40.8 16,-40.8"/>
</g>
<!-- RsbTranslatePipe -->
<g id="node1" class="node">
<title>RsbTranslatePipe</title>
<polygon fill="#ffffb3" stroke="black" points="138.26,-84.8 23.74,-84.8 23.74,-48.8 138.26,-48.8 138.26,-84.8"/>
<text text-anchor="middle" x="81" y="-62.6" font-family="Times,serif" font-size="14.00">RsbTranslatePipe</text>
</g>
<!-- RsbTranslateModule -->
<g id="node2" class="node">
<title>RsbTranslateModule</title>
<polygon fill="#8dd3c7" stroke="black" points="234.92,-149.8 231.92,-153.8 210.92,-153.8 207.92,-149.8 101.08,-149.8 101.08,-113.8 234.92,-113.8 234.92,-149.8"/>
<text text-anchor="middle" x="168" y="-127.6" font-family="Times,serif" font-size="14.00">RsbTranslateModule</text>
</g>
<!-- RsbTranslatePipe&#45;&gt;RsbTranslateModule -->
<g id="edge1" class="edge">
<title>RsbTranslatePipe&#45;&gt;RsbTranslateModule</title>
<path fill="none" stroke="black" d="M119.83,-84.91C119.83,-84.91 119.83,-103.79 119.83,-103.79"/>
<polygon fill="black" stroke="black" points="116.33,-103.79 119.83,-113.79 123.33,-103.79 116.33,-103.79"/>
</g>
<!-- RsbTranslatePipe  -->
<g id="node3" class="node">
<title>RsbTranslatePipe </title>
<polygon fill="#fb8072" stroke="black" points="227.26,-214.8 108.74,-214.8 108.74,-178.8 227.26,-178.8 227.26,-214.8"/>
<text text-anchor="middle" x="168" y="-192.6" font-family="Times,serif" font-size="14.00">RsbTranslatePipe </text>
</g>
<!-- RsbTranslateModule&#45;&gt;RsbTranslatePipe  -->
<g id="edge2" class="edge">
<title>RsbTranslateModule&#45;&gt;RsbTranslatePipe </title>
<path fill="none" stroke="black" stroke-dasharray="5,2" d="M168,-149.91C168,-149.91 168,-168.79 168,-168.79"/>
<polygon fill="black" stroke="black" points="164.5,-168.79 168,-178.79 171.5,-168.79 164.5,-168.79"/>
</g>
<!-- RsbTranslateService -->
<g id="node4" class="node">
<title>RsbTranslateService</title>
<ellipse fill="#fdb462" stroke="black" cx="253" cy="-66.8" rx="90.89" ry="18"/>
<text text-anchor="middle" x="253" y="-62.6" font-family="Times,serif" font-size="14.00">RsbTranslateService</text>
</g>
<!-- RsbTranslateService&#45;&gt;RsbTranslateModule -->
<g id="edge3" class="edge">
<title>RsbTranslateService&#45;&gt;RsbTranslateModule</title>
<path fill="none" stroke="black" d="M198.38,-81.23C198.38,-81.23 198.38,-103.69 198.38,-103.69"/>
<polygon fill="black" stroke="black" points="194.88,-103.69 198.38,-113.69 201.88,-103.69 194.88,-103.69"/>
</g>
</g>
</svg>
