<?xml version="1.0" encoding="UTF-8" standalone="no"?>
<!DOCTYPE svg PUBLIC "-//W3C//DTD SVG 1.1//EN"
 "http://www.w3.org/Graphics/SVG/1.1/DTD/svg11.dtd">
<!-- Generated by graphviz version 5.0.0 (20220707.1540)
 -->
<!-- Title: dependencies Pages: 1 -->
<svg width="396pt" height="247pt"
 viewBox="0.00 0.00 396.00 246.80" xmlns="http://www.w3.org/2000/svg" xmlns:xlink="http://www.w3.org/1999/xlink">
<g id="graph0" class="graph" transform="scale(1 1) rotate(0) translate(4 242.8)">
<title>dependencies</title>
<polygon fill="white" stroke="transparent" points="-4,4 -4,-242.8 392,-242.8 392,4 -4,4"/>
<text text-anchor="middle" x="194" y="-8.2" font-family="sans-serif" font-size="14.00">dependencies</text>
<g id="clust1" class="cluster">
<title>cluster_RsbSpinnerModule</title>
<polygon fill="none" stroke="black" stroke-dasharray="1,5" points="8,-32.8 8,-230.8 380,-230.8 380,-32.8 8,-32.8"/>
</g>
<g id="clust7" class="cluster">
<title>cluster_RsbSpinnerModule_providers</title>
<polygon fill="none" stroke="black" points="186,-40.8 186,-92.8 372,-92.8 372,-40.8 186,-40.8"/>
</g>
<g id="clust5" class="cluster">
<title>cluster_RsbSpinnerModule_exports</title>
<polygon fill="none" stroke="black" points="106,-170.8 106,-222.8 272,-222.8 272,-170.8 106,-170.8"/>
</g>
<g id="clust2" class="cluster">
<title>cluster_RsbSpinnerModule_declarations</title>
<polygon fill="none" stroke="black" points="16,-40.8 16,-92.8 178,-92.8 178,-40.8 16,-40.8"/>
</g>
<!-- RsbSpinnerComponent -->
<g id="node1" class="node">
<title>RsbSpinnerComponent</title>
<polygon fill="#ffffb3" stroke="black" points="170.17,-84.8 23.83,-84.8 23.83,-48.8 170.17,-48.8 170.17,-84.8"/>
<text text-anchor="middle" x="97" y="-62.6" font-family="Times,serif" font-size="14.00">RsbSpinnerComponent</text>
</g>
<!-- RsbSpinnerModule -->
<g id="node2" class="node">
<title>RsbSpinnerModule</title>
<polygon fill="#8dd3c7" stroke="black" points="251.39,-149.8 248.39,-153.8 227.39,-153.8 224.39,-149.8 126.61,-149.8 126.61,-113.8 251.39,-113.8 251.39,-149.8"/>
<text text-anchor="middle" x="189" y="-127.6" font-family="Times,serif" font-size="14.00">RsbSpinnerModule</text>
</g>
<!-- RsbSpinnerComponent&#45;&gt;RsbSpinnerModule -->
<g id="edge1" class="edge">
<title>RsbSpinnerComponent&#45;&gt;RsbSpinnerModule</title>
<path fill="none" stroke="black" d="M148.44,-84.91C148.44,-84.91 148.44,-103.79 148.44,-103.79"/>
<polygon fill="black" stroke="black" points="144.94,-103.79 148.44,-113.79 151.94,-103.79 144.94,-103.79"/>
</g>
<!-- RsbSpinnerComponent  -->
<g id="node3" class="node">
<title>RsbSpinnerComponent </title>
<polygon fill="#fb8072" stroke="black" points="264.17,-214.8 113.83,-214.8 113.83,-178.8 264.17,-178.8 264.17,-214.8"/>
<text text-anchor="middle" x="189" y="-192.6" font-family="Times,serif" font-size="14.00">RsbSpinnerComponent </text>
</g>
<!-- RsbSpinnerModule&#45;&gt;RsbSpinnerComponent  -->
<g id="edge2" class="edge">
<title>RsbSpinnerModule&#45;&gt;RsbSpinnerComponent </title>
<path fill="none" stroke="black" stroke-dasharray="5,2" d="M189,-149.91C189,-149.91 189,-168.79 189,-168.79"/>
<polygon fill="black" stroke="black" points="185.5,-168.79 189,-178.79 192.5,-168.79 185.5,-168.79"/>
</g>
<!-- RsbSpinnerService -->
<g id="node4" class="node">
<title>RsbSpinnerService</title>
<ellipse fill="#fdb462" stroke="black" cx="279" cy="-66.8" rx="85.12" ry="18"/>
<text text-anchor="middle" x="279" y="-62.6" font-family="Times,serif" font-size="14.00">RsbSpinnerService</text>
</g>
<!-- RsbSpinnerService&#45;&gt;RsbSpinnerModule -->
<g id="edge3" class="edge">
<title>RsbSpinnerService&#45;&gt;RsbSpinnerModule</title>
<path fill="none" stroke="black" d="M222.69,-80.58C222.69,-80.58 222.69,-103.35 222.69,-103.35"/>
<polygon fill="black" stroke="black" points="219.19,-103.35 222.69,-113.35 226.19,-103.35 219.19,-103.35"/>
</g>
</g>
</svg>
