<?xml version="1.0" encoding="UTF-8" standalone="no"?>
<!DOCTYPE svg PUBLIC "-//W3C//DTD SVG 1.1//EN"
 "http://www.w3.org/Graphics/SVG/1.1/DTD/svg11.dtd">
<!-- Generated by graphviz version 5.0.0 (20220707.1540)
 -->
<!-- Title: dependencies Pages: 1 -->
<svg width="362pt" height="247pt"
 viewBox="0.00 0.00 362.00 246.80" xmlns="http://www.w3.org/2000/svg" xmlns:xlink="http://www.w3.org/1999/xlink">
<g id="graph0" class="graph" transform="scale(1 1) rotate(0) translate(4 242.8)">
<title>dependencies</title>
<polygon fill="white" stroke="transparent" points="-4,4 -4,-242.8 358,-242.8 358,4 -4,4"/>
<text text-anchor="middle" x="177" y="-8.2" font-family="sans-serif" font-size="14.00">dependencies</text>
<g id="clust1" class="cluster">
<title>cluster_RsbTabsModule</title>
<polygon fill="none" stroke="black" stroke-dasharray="1,5" points="8,-32.8 8,-230.8 346,-230.8 346,-32.8 8,-32.8"/>
</g>
<g id="clust2" class="cluster">
<title>cluster_RsbTabsModule_declarations</title>
<polygon fill="none" stroke="black" points="20,-40.8 20,-92.8 334,-92.8 334,-40.8 20,-40.8"/>
</g>
<g id="clust6" class="cluster">
<title>cluster_RsbTabsModule_exports</title>
<polygon fill="none" stroke="black" points="16,-170.8 16,-222.8 338,-222.8 338,-170.8 16,-170.8"/>
</g>
<!-- RsbTabItemComponent -->
<g id="node1" class="node">
<title>RsbTabItemComponent</title>
<polygon fill="#ffffb3" stroke="black" points="326.04,-84.8 175.96,-84.8 175.96,-48.8 326.04,-48.8 326.04,-84.8"/>
<text text-anchor="middle" x="251" y="-62.6" font-family="Times,serif" font-size="14.00">RsbTabItemComponent</text>
</g>
<!-- RsbTabsModule -->
<g id="node3" class="node">
<title>RsbTabsModule</title>
<polygon fill="#8dd3c7" stroke="black" points="148.05,-149.8 145.05,-153.8 124.05,-153.8 121.05,-149.8 39.95,-149.8 39.95,-113.8 148.05,-113.8 148.05,-149.8"/>
<text text-anchor="middle" x="94" y="-127.6" font-family="Times,serif" font-size="14.00">RsbTabsModule</text>
</g>
<!-- RsbTabItemComponent&#45;&gt;RsbTabsModule -->
<g id="edge1" class="edge">
<title>RsbTabItemComponent&#45;&gt;RsbTabsModule</title>
<path fill="none" stroke="black" d="M276.17,-84.82C276.17,-102.17 276.17,-125.8 276.17,-125.8 276.17,-125.8 158.16,-125.8 158.16,-125.8"/>
<polygon fill="black" stroke="black" points="158.16,-122.3 148.16,-125.8 158.16,-129.3 158.16,-122.3"/>
</g>
<!-- RsbTabsComponent -->
<g id="node2" class="node">
<title>RsbTabsComponent</title>
<polygon fill="#ffffb3" stroke="black" points="158.33,-84.8 27.67,-84.8 27.67,-48.8 158.33,-48.8 158.33,-84.8"/>
<text text-anchor="middle" x="93" y="-62.6" font-family="Times,serif" font-size="14.00">RsbTabsComponent</text>
</g>
<!-- RsbTabsComponent&#45;&gt;RsbTabsModule -->
<g id="edge2" class="edge">
<title>RsbTabsComponent&#45;&gt;RsbTabsModule</title>
<path fill="none" stroke="black" d="M94,-84.91C94,-84.91 94,-103.79 94,-103.79"/>
<polygon fill="black" stroke="black" points="90.5,-103.79 94,-113.79 97.5,-103.79 90.5,-103.79"/>
</g>
<!-- RsbTabItemComponent  -->
<g id="node4" class="node">
<title>RsbTabItemComponent </title>
<polygon fill="#fb8072" stroke="black" points="330.04,-214.8 175.96,-214.8 175.96,-178.8 330.04,-178.8 330.04,-214.8"/>
<text text-anchor="middle" x="253" y="-192.6" font-family="Times,serif" font-size="14.00">RsbTabItemComponent </text>
</g>
<!-- RsbTabsModule&#45;&gt;RsbTabItemComponent  -->
<g id="edge3" class="edge">
<title>RsbTabsModule&#45;&gt;RsbTabItemComponent </title>
<path fill="none" stroke="black" stroke-dasharray="5,2" d="M148.1,-137.8C184.58,-137.8 226.08,-137.8 226.08,-137.8 226.08,-137.8 226.08,-168.78 226.08,-168.78"/>
<polygon fill="black" stroke="black" points="222.58,-168.78 226.08,-178.78 229.58,-168.78 222.58,-168.78"/>
</g>
<!-- RsbTabsComponent  -->
<g id="node5" class="node">
<title>RsbTabsComponent </title>
<polygon fill="#fb8072" stroke="black" points="157.83,-214.8 24.17,-214.8 24.17,-178.8 157.83,-178.8 157.83,-214.8"/>
<text text-anchor="middle" x="91" y="-192.6" font-family="Times,serif" font-size="14.00">RsbTabsComponent </text>
</g>
<!-- RsbTabsModule&#45;&gt;RsbTabsComponent  -->
<g id="edge4" class="edge">
<title>RsbTabsModule&#45;&gt;RsbTabsComponent </title>
<path fill="none" stroke="black" stroke-dasharray="5,2" d="M94,-149.91C94,-149.91 94,-168.79 94,-168.79"/>
<polygon fill="black" stroke="black" points="90.5,-168.79 94,-178.79 97.5,-168.79 90.5,-168.79"/>
</g>
</g>
</svg>
