<?xml version="1.0" encoding="UTF-8" standalone="no"?>
<!DOCTYPE svg PUBLIC "-//W3C//DTD SVG 1.1//EN"
 "http://www.w3.org/Graphics/SVG/1.1/DTD/svg11.dtd">
<!-- Generated by graphviz version 5.0.0 (20220707.1540)
 -->
<!-- Title: dependencies Pages: 1 -->
<svg width="366pt" height="247pt"
 viewBox="0.00 0.00 366.00 246.80" xmlns="http://www.w3.org/2000/svg" xmlns:xlink="http://www.w3.org/1999/xlink">
<g id="graph0" class="graph" transform="scale(1 1) rotate(0) translate(4 242.8)">
<title>dependencies</title>
<polygon fill="white" stroke="transparent" points="-4,4 -4,-242.8 362,-242.8 362,4 -4,4"/>
<text text-anchor="middle" x="179" y="-8.2" font-family="sans-serif" font-size="14.00">dependencies</text>
<g id="clust1" class="cluster">
<title>cluster_RsbToastModule</title>
<polygon fill="none" stroke="black" stroke-dasharray="1,5" points="8,-32.8 8,-230.8 350,-230.8 350,-32.8 8,-32.8"/>
</g>
<g id="clust5" class="cluster">
<title>cluster_RsbToastModule_exports</title>
<polygon fill="none" stroke="black" points="98,-170.8 98,-222.8 252,-222.8 252,-170.8 98,-170.8"/>
</g>
<g id="clust7" class="cluster">
<title>cluster_RsbToastModule_providers</title>
<polygon fill="none" stroke="black" points="174,-40.8 174,-92.8 342,-92.8 342,-40.8 174,-40.8"/>
</g>
<g id="clust2" class="cluster">
<title>cluster_RsbToastModule_declarations</title>
<polygon fill="none" stroke="black" points="16,-40.8 16,-92.8 166,-92.8 166,-40.8 16,-40.8"/>
</g>
<!-- RsbToastComponent -->
<g id="node1" class="node">
<title>RsbToastComponent</title>
<polygon fill="#ffffb3" stroke="black" points="158.22,-84.8 23.78,-84.8 23.78,-48.8 158.22,-48.8 158.22,-84.8"/>
<text text-anchor="middle" x="91" y="-62.6" font-family="Times,serif" font-size="14.00">RsbToastComponent</text>
</g>
<!-- RsbToastModule -->
<g id="node2" class="node">
<title>RsbToastModule</title>
<polygon fill="#8dd3c7" stroke="black" points="231.44,-149.8 228.44,-153.8 207.44,-153.8 204.44,-149.8 118.56,-149.8 118.56,-113.8 231.44,-113.8 231.44,-149.8"/>
<text text-anchor="middle" x="175" y="-127.6" font-family="Times,serif" font-size="14.00">RsbToastModule</text>
</g>
<!-- RsbToastComponent&#45;&gt;RsbToastModule -->
<g id="edge1" class="edge">
<title>RsbToastComponent&#45;&gt;RsbToastModule</title>
<path fill="none" stroke="black" d="M138.44,-84.91C138.44,-84.91 138.44,-103.79 138.44,-103.79"/>
<polygon fill="black" stroke="black" points="134.94,-103.79 138.44,-113.79 141.94,-103.79 134.94,-103.79"/>
</g>
<!-- RsbToastComponent  -->
<g id="node3" class="node">
<title>RsbToastComponent </title>
<polygon fill="#fb8072" stroke="black" points="243.72,-214.8 106.28,-214.8 106.28,-178.8 243.72,-178.8 243.72,-214.8"/>
<text text-anchor="middle" x="175" y="-192.6" font-family="Times,serif" font-size="14.00">RsbToastComponent </text>
</g>
<!-- RsbToastModule&#45;&gt;RsbToastComponent  -->
<g id="edge2" class="edge">
<title>RsbToastModule&#45;&gt;RsbToastComponent </title>
<path fill="none" stroke="black" stroke-dasharray="5,2" d="M175,-149.91C175,-149.91 175,-168.79 175,-168.79"/>
<polygon fill="black" stroke="black" points="171.5,-168.79 175,-178.79 178.5,-168.79 171.5,-168.79"/>
</g>
<!-- RsbToastService -->
<g id="node4" class="node">
<title>RsbToastService</title>
<ellipse fill="#fdb462" stroke="black" cx="258" cy="-66.8" rx="76.45" ry="18"/>
<text text-anchor="middle" x="258" y="-62.6" font-family="Times,serif" font-size="14.00">RsbToastService</text>
</g>
<!-- RsbToastService&#45;&gt;RsbToastModule -->
<g id="edge3" class="edge">
<title>RsbToastService&#45;&gt;RsbToastModule</title>
<path fill="none" stroke="black" d="M206.37,-80.27C206.37,-80.27 206.37,-103.66 206.37,-103.66"/>
<polygon fill="black" stroke="black" points="202.87,-103.66 206.37,-113.66 209.87,-103.66 202.87,-103.66"/>
</g>
</g>
</svg>
