<?xml version="1.0" encoding="UTF-8" standalone="no"?>
<!DOCTYPE svg PUBLIC "-//W3C//DTD SVG 1.1//EN"
 "http://www.w3.org/Graphics/SVG/1.1/DTD/svg11.dtd">
<!-- Generated by graphviz version 5.0.0 (20220707.1540)
 -->
<!-- Title: dependencies Pages: 1 -->
<svg width="352pt" height="247pt"
 viewBox="0.00 0.00 352.00 246.80" xmlns="http://www.w3.org/2000/svg" xmlns:xlink="http://www.w3.org/1999/xlink">
<g id="graph0" class="graph" transform="scale(1 1) rotate(0) translate(4 242.8)">
<title>dependencies</title>
<polygon fill="white" stroke="transparent" points="-4,4 -4,-242.8 348,-242.8 348,4 -4,4"/>
<text text-anchor="middle" x="172" y="-8.2" font-family="sans-serif" font-size="14.00">dependencies</text>
<g id="clust1" class="cluster">
<title>cluster_RsbDetailModule</title>
<polygon fill="none" stroke="black" stroke-dasharray="1,5" points="8,-32.8 8,-230.8 336,-230.8 336,-32.8 8,-32.8"/>
</g>
<g id="clust2" class="cluster">
<title>cluster_RsbDetailModule_declarations</title>
<polygon fill="none" stroke="black" points="174,-40.8 174,-92.8 328,-92.8 328,-40.8 174,-40.8"/>
</g>
<g id="clust4" class="cluster">
<title>cluster_RsbDetailModule_imports</title>
<polygon fill="none" stroke="black" points="16,-40.8 16,-92.8 166,-92.8 166,-40.8 16,-40.8"/>
</g>
<g id="clust5" class="cluster">
<title>cluster_RsbDetailModule_exports</title>
<polygon fill="none" stroke="black" points="94,-170.8 94,-222.8 250,-222.8 250,-170.8 94,-170.8"/>
</g>
<!-- RsbDetailComponent -->
<g id="node1" class="node">
<title>RsbDetailComponent</title>
<polygon fill="#ffffb3" stroke="black" points="319.82,-84.8 182.18,-84.8 182.18,-48.8 319.82,-48.8 319.82,-84.8"/>
<text text-anchor="middle" x="251" y="-62.6" font-family="Times,serif" font-size="14.00">RsbDetailComponent</text>
</g>
<!-- RsbDetailModule -->
<g id="node2" class="node">
<title>RsbDetailModule</title>
<polygon fill="#8dd3c7" stroke="black" points="229.55,-149.8 226.55,-153.8 205.55,-153.8 202.55,-149.8 114.45,-149.8 114.45,-113.8 229.55,-113.8 229.55,-149.8"/>
<text text-anchor="middle" x="172" y="-127.6" font-family="Times,serif" font-size="14.00">RsbDetailModule</text>
</g>
<!-- RsbDetailComponent&#45;&gt;RsbDetailModule -->
<g id="edge1" class="edge">
<title>RsbDetailComponent&#45;&gt;RsbDetailModule</title>
<path fill="none" stroke="black" d="M206.06,-84.91C206.06,-84.91 206.06,-103.79 206.06,-103.79"/>
<polygon fill="black" stroke="black" points="202.56,-103.79 206.06,-113.79 209.56,-103.79 202.56,-103.79"/>
</g>
<!-- RsbDetailComponent  -->
<g id="node4" class="node">
<title>RsbDetailComponent </title>
<polygon fill="#fb8072" stroke="black" points="242.32,-214.8 101.68,-214.8 101.68,-178.8 242.32,-178.8 242.32,-214.8"/>
<text text-anchor="middle" x="172" y="-192.6" font-family="Times,serif" font-size="14.00">RsbDetailComponent </text>
</g>
<!-- RsbDetailModule&#45;&gt;RsbDetailComponent  -->
<g id="edge3" class="edge">
<title>RsbDetailModule&#45;&gt;RsbDetailComponent </title>
<path fill="none" stroke="black" stroke-dasharray="5,2" d="M172,-149.91C172,-149.91 172,-168.79 172,-168.79"/>
<polygon fill="black" stroke="black" points="168.5,-168.79 172,-178.79 175.5,-168.79 168.5,-168.79"/>
</g>
<!-- ClickOutsideModule -->
<g id="node3" class="node">
<title>ClickOutsideModule</title>
<polygon fill="#8dd3c7" stroke="black" points="157.94,-84.8 154.94,-88.8 133.94,-88.8 130.94,-84.8 24.06,-84.8 24.06,-48.8 157.94,-48.8 157.94,-84.8"/>
<text text-anchor="middle" x="91" y="-62.6" font-family="Times,serif" font-size="14.00">ClickOutsideModule</text>
</g>
<!-- ClickOutsideModule&#45;&gt;RsbDetailModule -->
<g id="edge2" class="edge">
<title>ClickOutsideModule&#45;&gt;RsbDetailModule</title>
<path fill="none" stroke="black" d="M135.97,-84.91C135.97,-84.91 135.97,-103.79 135.97,-103.79"/>
<polygon fill="black" stroke="black" points="132.47,-103.79 135.97,-113.79 139.47,-103.79 132.47,-103.79"/>
</g>
</g>
</svg>
